<svg width="264" height="248" viewBox="0 0 264 248" fill="none" xmlns="http://www.w3.org/2000/svg">
<path d="M236.25 19.8904C162.244 -25.0775 47.0315 15.937 33.6255 48.3549C15.6915 91.7269 45.8765 99.1393 51.4835 134.68C55.9835 163.196 27.8915 190.503 43.9265 215.678C61.3885 243.09 119.273 236.212 141.275 223.235C181.55 199.487 161.238 171.768 180.309 137.175C198.473 104.228 233.89 117.591 254.502 91.2325C274.092 66.1812 261.102 34.9914 236.25 19.8934V19.8904Z" fill="url(#paint0_linear_0_1)"/>
<path d="M114.5 247.247C177.737 247.247 229 195.923 229 132.612C229 69.3008 177.737 17.9768 114.5 17.9768C51.2634 17.9768 0 69.3008 0 132.612C0 195.923 51.2634 247.247 114.5 247.247Z" fill="#C8C8C8"/>
<path d="M114.5 246.749C177.46 246.749 228.5 195.648 228.5 132.612C228.5 69.5762 177.46 18.4753 114.5 18.4753C51.5395 18.4753 0.5 69.5762 0.5 132.612C0.5 195.648 51.5395 246.749 114.5 246.749Z" stroke="#707070"/>
<mask id="mask0_0_1" style="mask-type:luminance" maskUnits="userSpaceOnUse" x="49" y="68" width="137" height="132">
<path d="M186 68H49V200H186V68Z" fill="white"/>
</mask>
<g mask="url(#mask0_0_1)">
<path d="M185.977 189.114L174.531 110.38C174.452 109.834 174.178 109.336 173.76 108.975C173.341 108.614 172.805 108.415 172.251 108.415H151.877L150.521 99.0762C150.442 98.5304 150.168 98.0311 149.748 97.6702C149.329 97.3093 148.793 97.111 148.239 97.1117H134.193V95.1243C134.124 87.9757 131.22 81.1434 126.113 76.1128C121.006 71.0823 114.11 68.2603 106.922 68.2603C99.7352 68.2603 92.8385 71.0823 87.7318 76.1128C82.6251 81.1434 79.7213 87.9757 79.6517 95.1243V97.1117H65.5884C65.0344 97.1116 64.499 97.3102 64.0803 97.6711C63.6616 98.0319 63.3877 98.5308 63.3089 99.0762L49.023 197.382C48.9757 197.707 48.9992 198.038 49.0921 198.354C49.1849 198.669 49.3449 198.961 49.5611 199.209C49.7774 199.457 50.0448 199.657 50.3453 199.793C50.6457 199.93 50.9722 200 51.3025 200H162.525C162.855 200 163.181 199.93 163.482 199.793C163.782 199.657 164.05 199.457 164.266 199.209C164.482 198.961 164.642 198.669 164.735 198.354C164.828 198.038 164.851 197.707 164.804 197.382L163.985 191.732H183.685C184.015 191.733 184.342 191.662 184.643 191.526C184.944 191.39 185.211 191.191 185.428 190.942C185.644 190.694 185.805 190.402 185.898 190.086C185.991 189.771 186.014 189.439 185.967 189.114M146.243 101.697L147.22 108.415H134.193V101.697H146.243ZM84.2516 95.1243C84.2516 92.1641 84.8378 89.233 85.9767 86.4982C87.1155 83.7633 88.7848 81.2784 90.8891 79.1853C92.9935 77.0921 95.4917 75.4318 98.2412 74.299C100.991 73.1662 103.938 72.5831 106.914 72.5831C109.89 72.5831 112.836 73.1662 115.586 74.299C118.335 75.4318 120.834 77.0921 122.938 79.1853C125.042 81.2784 126.712 83.7633 127.85 86.4982C128.989 89.233 129.575 92.1641 129.575 95.1243V97.1117H84.2516V95.1243ZM159.864 195.417H53.9658L67.5839 101.697H79.644V120.64C79.644 120.941 79.7036 121.239 79.8193 121.517C79.935 121.795 80.1046 122.047 80.3184 122.26C80.5322 122.472 80.786 122.641 81.0654 122.756C81.3448 122.871 81.6442 122.931 81.9465 122.931C82.2489 122.931 82.5483 122.871 82.8277 122.756C83.107 122.641 83.3609 122.472 83.5747 122.26C83.7885 122.047 83.9581 121.795 84.0738 121.517C84.1895 121.239 84.2491 120.941 84.2491 120.64V101.697H129.588V108.415H106.051C105.497 108.415 104.961 108.613 104.542 108.974C104.122 109.335 103.848 109.834 103.769 110.38L92.3232 189.114C92.2759 189.439 92.2995 189.771 92.3925 190.086C92.4854 190.402 92.6456 190.694 92.8622 190.942C93.0787 191.191 93.3464 191.39 93.6472 191.526C93.948 191.662 94.2747 191.733 94.6053 191.732H159.332L159.864 195.417ZM97.2737 187.149L108.052 113.001H170.266L181.044 187.149H97.2737Z" fill="#242529"/>
<path d="M159.15 122.678C158.539 122.678 157.954 122.92 157.522 123.349C157.09 123.779 156.848 124.361 156.848 124.969V135.333C156.848 140 154.984 144.476 151.666 147.776C148.348 151.076 143.848 152.93 139.156 152.93C134.465 152.93 129.965 151.076 126.647 147.776C123.329 144.476 121.465 140 121.465 135.333V124.971C121.465 124.364 121.223 123.781 120.791 123.352C120.359 122.922 119.774 122.681 119.163 122.681C118.552 122.681 117.967 122.922 117.535 123.352C117.103 123.781 116.86 124.364 116.86 124.971V135.333C116.829 138.266 117.382 141.176 118.489 143.895C119.595 146.614 121.233 149.087 123.307 151.172C125.381 153.257 127.85 154.912 130.571 156.042C133.292 157.172 136.212 157.753 139.16 157.753C142.109 157.753 145.029 157.172 147.75 156.042C150.471 154.912 152.94 153.257 155.014 151.172C157.088 149.087 158.725 146.614 159.832 143.895C160.938 141.176 161.492 138.266 161.46 135.333V124.971C161.46 124.364 161.218 123.781 160.786 123.352C160.354 122.922 159.768 122.681 159.158 122.681" fill="#242529"/>
</g>
<defs>
<linearGradient id="paint0_linear_0_1" x1="28" y1="117.319" x2="264.001" y2="117.319" gradientUnits="userSpaceOnUse">
<stop offset="0.383652" stop-color="#E6E6E6"/>
<stop offset="1" stop-color="#A77D32"/>
</linearGradient>
</defs>
</svg>
