<svg width="271" height="248" viewBox="0 0 271 248" fill="none" xmlns="http://www.w3.org/2000/svg">
<path d="M243.177 19.8714C169.171 -25.0966 53.9577 15.918 40.5517 48.3358C22.6177 91.7078 52.8027 99.1203 58.4097 134.661C62.9097 163.176 34.8177 190.484 50.8527 215.659C68.3147 243.071 126.2 236.193 148.202 223.215C188.477 199.468 168.165 171.749 187.236 137.156C205.4 104.209 240.817 117.572 261.429 91.2134C281.019 66.1621 268.029 34.9723 243.177 19.8744V19.8714Z" fill="url(#paint0_linear_0_1)"/>
<path d="M114.5 247.228C177.737 247.228 229 195.904 229 132.593C229 69.2817 177.737 17.9578 114.5 17.9578C51.2634 17.9578 0 69.2817 0 132.593C0 195.904 51.2634 247.228 114.5 247.228Z" fill="#C8C8C8"/>
<path d="M114.5 246.73C177.46 246.73 228.5 195.629 228.5 132.593C228.5 69.5571 177.46 18.4563 114.5 18.4563C51.5395 18.4563 0.5 69.5571 0.5 132.593C0.5 195.629 51.5395 246.73 114.5 246.73Z" stroke="#707070"/>
<g clip-path="url(#clip0_0_1)">
<path d="M124.652 140.696C124.652 139.577 123.759 138.682 122.643 138.682H46.0096C44.8932 138.682 44 139.577 44 140.696V184.254C44 185.373 44.8932 186.268 46.0096 186.268C47.1261 186.268 48.0192 185.373 48.0192 184.254V142.709H122.643C123.759 142.709 124.652 141.814 124.652 140.696Z" fill="#242529"/>
<path d="M130.793 148.392H117.931H66.999H54.1375C53.0211 148.392 52.1279 149.286 52.1279 150.405V193.964C52.1279 195.082 53.0211 195.977 54.1375 195.977H130.771C131.887 195.977 132.78 195.082 132.78 193.964V150.405C132.78 149.286 131.887 148.392 130.771 148.392H130.793ZM56.1695 165.171C62.7565 164.276 67.9815 159.041 68.897 152.441H116.078C116.971 159.041 122.196 164.276 128.806 165.171V179.221C122.219 180.115 116.994 185.351 116.078 191.973H68.8747C67.9815 185.373 62.7565 180.138 56.1471 179.221V165.171H56.1695ZM128.783 161.077C124.407 160.249 120.968 156.804 120.142 152.419H128.783V161.077ZM64.8108 152.419C63.9846 156.804 60.546 160.249 56.1695 161.077V152.419H64.8108ZM56.1695 183.315C60.546 184.142 63.9846 187.588 64.8108 191.973H56.1695V183.315ZM120.142 191.95C120.968 187.565 124.407 184.12 128.783 183.292V191.95H120.142Z" fill="#242529"/>
<path d="M92.4765 187.565C99.4654 187.565 105.137 180.675 105.137 172.196C105.137 163.717 99.4654 156.826 92.4765 156.826C85.4875 156.826 79.8159 163.717 79.8159 172.196C79.8159 180.675 85.4875 187.565 92.4765 187.565ZM92.4765 160.853C97.2325 160.853 101.118 165.931 101.118 172.196C101.118 178.46 97.2549 183.538 92.4765 183.538C87.6981 183.538 83.8351 178.46 83.8351 172.196C83.8351 165.931 87.7204 160.853 92.4765 160.853Z" fill="#242529"/>
<path d="M168.529 79.9998C150.085 79.9998 135.058 95.0339 135.058 113.536C135.058 132.038 150.063 147.072 168.529 147.072C186.995 147.072 202 132.038 202 113.536C202 95.0339 186.995 79.9998 168.529 79.9998ZM168.529 143.022C152.296 143.022 139.077 129.8 139.077 113.513C139.077 97.2264 152.296 84.0268 168.529 84.0268C184.762 84.0268 197.981 97.2487 197.981 113.536C197.981 129.823 184.784 143.045 168.529 143.045V143.022Z" fill="#242529"/>
<path d="M176.88 112.149C175.406 111.522 173.62 110.985 171.498 110.493V102.775C173.865 103.043 176.165 103.826 178.443 105.146L180.72 99.5531C178.309 98.0095 175.227 97.0922 171.521 96.779V91.8347H166.988V96.8908C163.549 97.2935 160.892 98.3898 159.061 100.18C157.23 101.992 156.315 104.139 156.315 106.668C156.315 108.703 156.806 110.337 157.811 111.545C158.816 112.775 160.044 113.715 161.54 114.341C163.013 114.968 164.844 115.549 166.988 116.064V123.648C165.358 123.491 163.773 123.133 162.232 122.552C160.691 121.97 159.351 121.254 158.19 120.426L155.689 125.975C156.94 126.937 158.57 127.765 160.58 128.436C162.611 129.107 164.733 129.487 166.966 129.621V134.566H171.498V129.465C174.915 129.04 177.527 127.943 179.358 126.176C181.167 124.409 182.082 122.283 182.082 119.8C182.082 117.809 181.591 116.176 180.586 114.968C179.581 113.737 178.353 112.82 176.88 112.193V112.149ZM166.966 109.352C165.871 109.017 165.045 108.614 164.465 108.122C163.884 107.63 163.594 107.025 163.594 106.265C163.594 105.504 163.862 104.788 164.42 104.207C164.956 103.625 165.804 103.177 166.966 102.909V109.375V109.352ZM173.955 122.261C173.419 122.798 172.593 123.201 171.498 123.447V117.182C172.548 117.54 173.374 117.965 173.932 118.458C174.49 118.95 174.781 119.554 174.781 120.315C174.781 121.075 174.513 121.724 173.955 122.261Z" fill="#242529"/>
<path d="M168.529 152.888C167.412 152.888 166.519 153.783 166.519 154.902V170.182H141.042C139.925 170.182 139.032 171.077 139.032 172.196C139.032 173.314 139.925 174.209 141.042 174.209H168.529C169.645 174.209 170.538 173.314 170.538 172.196V154.902C170.538 153.783 169.645 152.888 168.529 152.888Z" fill="#242529"/>
<path d="M84.326 135.729C85.4425 135.729 86.3356 134.834 86.3356 133.715V107.674H126.818C127.935 107.674 128.828 106.779 128.828 105.661C128.828 104.542 127.935 103.647 126.818 103.647H84.326C83.2096 103.647 82.3164 104.542 82.3164 105.661V133.715C82.3164 134.834 83.2096 135.729 84.326 135.729Z" fill="#242529"/>
</g>
<defs>
<linearGradient id="paint0_linear_0_1" x1="34.9263" y1="117.3" x2="270.927" y2="117.3" gradientUnits="userSpaceOnUse">
<stop offset="0.383652" stop-color="#E6E6E6"/>
<stop offset="1" stop-color="#A77D32"/>
</linearGradient>
<clipPath id="clip0_0_1">
<rect width="158" height="116" fill="white" transform="translate(44 79.9998)"/>
</clipPath>
</defs>
</svg>
