<svg width="258" height="248" viewBox="0 0 258 248" fill="none" xmlns="http://www.w3.org/2000/svg">
<path d="M230.25 19.8904C156.244 -25.0775 41.031 15.937 27.625 48.3549C9.69099 91.7269 39.876 99.1393 45.483 134.68C49.983 163.196 21.891 190.503 37.926 215.678C55.388 243.09 113.273 236.212 135.275 223.235C175.55 199.487 155.238 171.768 174.309 137.175C192.473 104.228 227.89 117.591 248.502 91.2325C268.092 66.1812 255.102 34.9914 230.25 19.8934V19.8904Z" fill="url(#paint0_linear_0_1)"/>
<path d="M114.5 247.247C177.737 247.247 229 195.923 229 132.612C229 69.3008 177.737 17.9768 114.5 17.9768C51.2634 17.9768 0 69.3008 0 132.612C0 195.923 51.2634 247.247 114.5 247.247Z" fill="#C8C8C8"/>
<path d="M114.5 246.749C177.46 246.749 228.5 195.648 228.5 132.612C228.5 69.5762 177.46 18.4753 114.5 18.4753C51.5395 18.4753 0.5 69.5762 0.5 132.612C0.5 195.648 51.5395 246.749 114.5 246.749Z" stroke="#707070"/>
<mask id="mask0_0_1" style="mask-type:luminance" maskUnits="userSpaceOnUse" x="20" y="88" width="188" height="117">
<path d="M208 88H20V205H208V88Z" fill="white"/>
</mask>
<g mask="url(#mask0_0_1)">
<path d="M114.005 145.094C120.04 145.087 125.826 142.686 130.094 138.417C134.362 134.147 136.763 128.358 136.771 122.32V116.19C136.771 110.15 134.372 104.357 130.103 100.085C125.834 95.8143 120.044 93.4148 114.006 93.4148C107.969 93.4148 102.179 95.8143 97.9095 100.085C93.6403 104.357 91.2419 110.15 91.2419 116.19V122.32C91.2485 128.358 93.6488 134.147 97.9163 138.416C102.184 142.686 107.97 145.087 114.005 145.094ZM96.8202 116.19C96.8202 111.633 98.6297 107.262 101.851 104.039C105.072 100.817 109.44 99.0065 113.995 99.0065C118.551 99.0065 122.919 100.817 126.14 104.039C129.361 107.262 131.171 111.633 131.171 116.19V122.32C131.171 126.878 129.361 131.248 126.14 134.471C122.919 137.693 118.551 139.504 113.995 139.504C109.44 139.504 105.072 137.693 101.851 134.471C98.6297 131.248 96.8202 126.878 96.8202 122.32V116.19Z" fill="#242529"/>
<path d="M161.665 139.678C167.7 139.671 173.486 137.27 177.754 133C182.022 128.731 184.423 122.942 184.431 116.904V110.774C184.431 104.733 182.032 98.9404 177.763 94.6692C173.494 90.3981 167.704 87.9985 161.666 87.9985C155.629 87.9985 149.839 90.3981 145.569 94.6692C141.3 98.9404 138.902 104.733 138.902 110.774V116.904C138.908 122.942 141.309 128.731 145.576 133C149.844 137.27 155.63 139.671 161.665 139.678ZM144.489 110.774C144.489 106.216 146.299 101.846 149.52 98.6232C152.741 95.4007 157.109 93.5903 161.665 93.5903C166.22 93.5903 170.588 95.4007 173.809 98.6232C177.03 101.846 178.84 106.216 178.84 110.774V116.904C178.84 121.461 177.03 125.832 173.809 129.055C170.588 132.277 166.22 134.087 161.665 134.087C157.109 134.087 152.741 132.277 149.52 129.055C146.299 125.832 144.489 121.461 144.489 116.904V110.774Z" fill="#242529"/>
<path d="M201.925 151.892C199.348 149.086 196.22 146.843 192.737 145.303C189.254 143.763 185.49 142.958 181.682 142.94H141.66C135.783 142.956 130.065 144.854 125.344 148.356H102.653C97.9307 144.854 92.212 142.956 86.3338 142.94H46.3183C42.5128 142.958 38.7519 143.761 35.2708 145.299C31.7897 146.837 28.6633 149.077 26.0871 151.879C23.9062 154.217 22.2461 156.991 21.2166 160.019C20.1871 163.046 19.8116 166.258 20.1149 169.441C21.4109 178.876 23.2632 188.226 25.6621 197.442C25.6922 197.548 25.7284 197.651 25.7706 197.752C25.7706 197.793 25.7955 197.836 25.811 197.877C25.8797 198.033 25.9617 198.184 26.0561 198.327L26.1181 198.404C26.1952 198.515 26.2814 198.618 26.3756 198.715C26.4129 198.755 26.4563 198.789 26.4966 198.83C26.5789 198.904 26.6648 198.975 26.7541 199.041L26.9155 199.146C27.0034 199.201 27.0946 199.251 27.1885 199.295L27.3715 199.376C27.478 199.415 27.5868 199.449 27.6973 199.475L27.8555 199.519C28.0273 199.552 28.2017 199.569 28.3767 199.571H72.5527C72.8133 200.673 73.0739 201.769 73.3345 202.846C73.3646 202.952 73.4009 203.055 73.4431 203.156C73.4586 203.197 73.4679 203.237 73.4834 203.277C73.5515 203.435 73.6335 203.585 73.7285 203.728C73.7475 203.755 73.7682 203.781 73.7906 203.805C73.8669 203.915 73.952 204.019 74.045 204.116C74.0853 204.156 74.1287 204.19 74.1691 204.227C74.25 204.303 74.3361 204.374 74.4266 204.438L74.5879 204.544C74.6755 204.6 74.7667 204.649 74.8609 204.693C74.9194 204.723 74.9795 204.75 75.0409 204.774C75.148 204.815 75.2579 204.849 75.3697 204.876C75.4225 204.876 75.4752 204.907 75.528 204.916C75.6995 204.951 75.8741 204.969 76.0492 204.969H151.92C151.991 204.969 152.056 204.954 152.125 204.947C152.229 204.945 152.332 204.935 152.435 204.919C152.528 204.901 152.612 204.873 152.699 204.848C152.785 204.826 152.87 204.799 152.953 204.767C153.04 204.731 153.125 204.69 153.207 204.643C153.285 204.607 153.361 204.567 153.434 204.522C153.508 204.472 153.577 204.417 153.648 204.361C153.719 204.305 153.791 204.249 153.856 204.187C153.917 204.127 153.975 204.064 154.03 203.998C154.093 203.929 154.152 203.856 154.206 203.78C154.257 203.705 154.304 203.628 154.346 203.548C154.389 203.47 154.436 203.392 154.473 203.312C154.514 203.21 154.548 203.107 154.576 203.001C154.602 202.951 154.625 202.899 154.647 202.846C154.905 201.769 155.165 200.673 155.423 199.578H199.596C199.77 199.576 199.945 199.558 200.117 199.525L200.278 199.481C200.383 199.454 200.487 199.421 200.588 199.382L200.771 199.301C200.864 199.257 200.954 199.207 201.041 199.152C201.098 199.119 201.153 199.083 201.206 199.044C201.295 198.98 201.38 198.911 201.46 198.836C201.5 198.798 201.547 198.761 201.584 198.721C201.676 198.625 201.761 198.521 201.835 198.41C201.857 198.383 201.882 198.355 201.904 198.324C201.999 198.182 202.08 198.031 202.146 197.874C202.162 197.834 202.176 197.794 202.186 197.752C202.23 197.651 202.267 197.548 202.298 197.442C204.686 188.224 206.551 178.877 207.882 169.448C208.187 166.266 207.814 163.057 206.786 160.031C205.759 157.005 204.101 154.232 201.922 151.895M154.647 174.29C153.662 181.644 152.27 188.938 150.477 196.138C150.477 196.185 150.452 196.232 150.446 196.278C150.2 197.327 149.955 198.371 149.711 199.41H139.783V178.614C139.783 178.247 139.711 177.883 139.571 177.545C139.43 177.206 139.225 176.898 138.965 176.638C138.706 176.379 138.398 176.173 138.059 176.033C137.721 175.892 137.358 175.82 136.991 175.82C136.624 175.82 136.261 175.892 135.922 176.033C135.584 176.173 135.276 176.379 135.016 176.638C134.757 176.898 134.552 177.206 134.411 177.545C134.271 177.883 134.199 178.247 134.199 178.614V199.41H93.7984V178.614C93.7984 177.873 93.5042 177.162 92.9806 176.638C92.4569 176.114 91.7467 175.82 91.0061 175.82C90.2656 175.82 89.5554 176.114 89.0318 176.638C88.5081 177.162 88.2139 177.873 88.2139 178.614V199.41H78.255C76.1398 191.137 74.5001 182.75 73.3438 174.29C73.1251 171.885 73.4184 169.46 74.2045 167.177C74.9906 164.893 76.2517 162.802 77.9044 161.042C79.9525 158.814 82.4378 157.033 85.2052 155.81C87.9725 154.587 90.9623 153.948 93.9876 153.934H134.009C137.037 153.948 140.03 154.587 142.8 155.812C145.569 157.037 148.056 158.82 150.105 161.051C151.756 162.811 153.014 164.9 153.797 167.183C154.58 169.465 154.87 171.887 154.647 174.29ZM46.129 193.99V173.194C46.129 172.453 45.8348 171.743 45.3112 171.219C44.7875 170.695 44.0773 170.401 43.3368 170.401C42.5963 170.401 41.886 170.695 41.3624 171.219C40.8388 171.743 40.5446 172.453 40.5446 173.194V193.99H30.5826C28.4681 185.72 26.8294 177.335 25.6745 168.876C25.4551 166.471 25.7485 164.046 26.5352 161.763C27.3219 159.479 28.584 157.388 30.2382 155.629C32.2862 153.402 34.7712 151.622 37.538 150.4C40.3049 149.178 43.2939 148.541 46.3183 148.527H86.34C87.3732 148.528 88.4048 148.604 89.427 148.754C83.4058 149.793 77.8984 152.799 73.7658 157.302C71.5836 159.638 69.9216 162.411 68.8894 165.437C67.8573 168.463 67.4785 171.674 67.778 174.858C68.5829 181.295 69.743 187.682 71.2528 193.99H46.129ZM202.326 168.873C201.151 177.332 199.502 185.717 197.387 193.99H187.459V173.194C187.459 172.453 187.164 171.743 186.641 171.219C186.117 170.695 185.407 170.401 184.666 170.401C183.926 170.401 183.216 170.695 182.692 171.219C182.168 171.743 181.874 172.453 181.874 173.194V193.99H156.713C158.227 187.681 159.397 181.294 160.219 174.858C160.524 171.677 160.151 168.467 159.123 165.441C158.096 162.415 156.438 159.642 154.259 157.305C150.124 152.797 144.612 149.787 138.586 148.747C139.608 148.597 140.639 148.522 141.672 148.521H181.694C184.719 148.537 187.708 149.178 190.475 150.402C193.241 151.627 195.725 153.409 197.771 155.638C199.423 157.396 200.682 159.485 201.466 161.767C202.251 164.049 202.541 166.471 202.319 168.873" fill="#242529"/>
<path d="M66.3228 139.678C72.3582 139.671 78.1445 137.27 82.4124 133C86.6803 128.731 89.0813 122.942 89.0887 116.904V110.774C89.0887 104.733 86.6903 98.9404 82.4212 94.6692C78.1521 90.3981 72.3619 87.9985 66.3244 87.9985C60.2869 87.9985 54.4967 90.3981 50.2276 94.6692C45.9584 98.9404 43.5601 104.733 43.5601 110.774V116.904C43.5666 122.942 45.967 128.731 50.2344 133C54.5018 137.27 60.2878 139.671 66.3228 139.678ZM49.1631 110.774C49.1631 108.517 49.6074 106.283 50.4705 104.198C51.3336 102.113 52.5988 100.219 54.1936 98.6232C55.7885 97.0276 57.6819 95.7618 59.7657 94.8983C61.8495 94.0347 64.0829 93.5903 66.3383 93.5903C68.5938 93.5903 70.8272 94.0347 72.911 94.8983C74.9948 95.7618 76.8882 97.0276 78.4831 98.6232C80.0779 100.219 81.3431 102.113 82.2062 104.198C83.0693 106.283 83.5136 108.517 83.5136 110.774V116.904C83.5136 119.161 83.0693 121.395 82.2062 123.48C81.3431 125.565 80.0779 127.459 78.4831 129.055C76.8882 130.65 74.9948 131.916 72.911 132.779C70.8272 133.643 68.5938 134.087 66.3383 134.087C64.0829 134.087 61.8495 133.643 59.7657 132.779C57.6819 131.916 55.7885 130.65 54.1936 129.055C52.5988 127.459 51.3336 125.565 50.4705 123.48C49.6074 121.395 49.1631 119.161 49.1631 116.904V110.774Z" fill="#242529"/>
</g>
<defs>
<linearGradient id="paint0_linear_0_1" x1="21.9995" y1="117.319" x2="258" y2="117.319" gradientUnits="userSpaceOnUse">
<stop offset="0.383652" stop-color="#E6E6E6"/>
<stop offset="1" stop-color="#A77D32"/>
</linearGradient>
</defs>
</svg>
