<svg width="543" height="483" viewBox="0 0 543 483" fill="none" xmlns="http://www.w3.org/2000/svg">
<circle cx="249.5" cy="189.5" r="293.5" fill="black"/>
<path d="M135.489 334.854C137.431 332.138 139.187 329.266 141.343 326.734C151.82 314.436 162.408 302.234 172.937 289.981C173.241 289.626 173.36 289.102 173.708 288.342C172.389 287.168 171.048 285.965 169.359 284.459C168.01 285.197 166.558 285.699 165.498 286.629C158.659 292.623 151.879 298.691 145.129 304.781C133.378 315.396 121.67 326.055 109.911 336.663C108.807 337.659 107.459 338.383 105.969 339.409C107.303 335.748 124.449 319.84 136.09 310.162C146.811 301.253 156.933 291.627 167.654 282.016C166.558 281.004 165.654 280.178 164.424 279.048C151.494 288.748 138.801 298.278 126.101 307.808C125.798 307.438 125.486 307.069 125.183 306.693C127.346 304.84 129.428 302.877 131.696 301.149C140.543 294.402 149.479 287.766 158.318 281.012C160.119 279.639 162.638 278.465 161.868 274.331C142.306 288.098 123.426 301.385 104.539 314.673C104.236 314.244 103.932 313.816 103.621 313.396C122.019 299.562 141.261 286.836 159.719 273.217C158.674 270.013 157.125 270.234 155.258 271.393C151.568 273.674 147.863 275.933 143.803 277.72C146.841 273.062 152.754 271.873 156.362 267.547C155.888 266.868 155.443 266.241 154.695 265.178C144.099 270.685 133.681 276.103 122.337 282.001C124.945 277.254 129.302 276.753 132.511 274.7C135.771 272.611 139.305 270.958 142.751 269.171C146.322 267.319 149.938 265.547 154.058 263.473C153.095 261.487 152.354 259.959 151.39 257.981C132.007 266.558 113.112 274.914 94.2178 283.271C94.0104 282.828 93.8029 282.377 93.6028 281.934C102.176 276.251 112.245 273.593 121.463 269.216C130.903 264.742 140.543 260.682 150.679 256.187C150.086 254.327 149.508 252.518 148.753 250.156C146.374 250.525 144.233 250.636 142.217 251.212C130.517 254.533 118.847 257.944 107.177 261.347C95.3441 264.801 83.5184 268.293 71.6778 271.718C70.4775 272.065 69.1734 272.043 67.9137 272.191C67.81 271.77 67.7137 271.349 67.61 270.936C94.1808 263.089 120.759 255.249 147.648 247.314C147.13 245.808 146.782 244.767 146.255 243.239C130.451 246.362 114.831 249.44 99.2119 252.526C99.0934 252.156 98.9748 251.787 98.8562 251.418C99.9603 250.961 101.02 250.311 102.168 250.075C114.239 247.587 126.346 245.262 138.386 242.649C140.839 242.117 144.21 242.545 145.752 238.168C122.226 241.416 99.7084 246.48 76.7608 248.702C87.8604 245.528 99.2341 243.808 110.563 241.881C121.848 239.962 133.126 238.02 144.9 236.005C144.573 234.558 144.314 233.414 144.047 232.248C138.564 232.757 133.518 233.222 128.472 233.687C133.2 229.864 139.55 232.233 144.492 228.801C143.143 226.217 141.091 226.822 139.424 226.867C130.658 227.118 121.893 227.516 113.127 227.819C111.549 227.87 109.971 227.679 108.385 227.044C114.135 224.733 120.189 226.195 126.057 225.442C131.866 224.696 137.779 224.674 144.062 224.312V218.946C133.4 218.533 122.997 218.119 112.586 217.735C102.346 217.359 92.1061 217.019 81.866 216.658C81.7993 216.222 81.7401 215.787 81.6734 215.351C82.7774 215.122 83.8963 214.657 84.9855 214.694C92.4025 214.945 99.8121 215.351 107.229 215.624C117.514 216.001 127.806 216.311 138.09 216.628C139.913 216.687 141.743 216.635 144.129 216.635C144.27 214.244 144.388 212.354 144.544 209.689C117.284 203.954 89.7869 201.34 62.8678 195.693C62.8678 195.346 62.8826 194.999 62.8826 194.66C64.7128 194.66 66.5948 194.402 68.3731 194.697C92.8322 198.779 117.284 202.95 141.736 207.076C142.699 207.238 143.692 207.179 144.959 207.238C145.159 205.976 145.337 204.891 145.603 203.223C137.631 201.097 129.888 198.882 122.063 196.993C114.542 195.169 106.918 193.759 99.612 191.25C99.7454 190.762 99.8788 190.275 100.012 189.788C115.32 193.516 130.621 197.236 146.107 201.008C146.974 197.775 144.877 197.421 143.232 196.934C138.053 195.398 132.829 194.003 127.635 192.512C112.868 188.26 98.1079 183.986 83.3405 179.712C82.4292 179.446 81.54 179.077 80.6434 178.752L80.7101 177.697C81.8512 177.77 83.0516 177.63 84.126 177.94C102.154 183.078 120.166 188.275 138.186 193.449C141.091 194.283 144.018 195.051 147.211 195.922C147.686 194.903 148.071 194.062 148.819 192.453C143.492 190.482 138.453 188.614 133.415 186.747C133.526 186.392 133.637 186.045 133.755 185.691C139.387 185.543 144.188 189.589 149.76 189.596C150.961 187.197 149.175 186.636 147.915 186.045C143.025 183.764 138.083 181.579 133.14 179.402C128.102 177.18 123.041 175.01 117.306 172.522C119.559 172.099 123.481 173.088 129.073 175.489C132.8 177.084 136.564 178.575 140.291 180.169C143.981 181.749 147.634 183.395 151.65 185.16C152.517 183.417 153.154 182.14 154.073 180.302C135.949 169.695 116.988 161.309 99.1452 150.93L99.5083 149.949C101.242 150.576 103.065 151.026 104.688 151.86C118.032 158.77 131.34 165.738 144.64 172.714C148.049 174.5 151.405 176.375 155.229 178.45C156.459 176.397 157.451 174.737 158.867 172.374C136.386 155.544 113.098 140.227 90.9576 123.308C99.3453 127.058 106.384 132.904 113.898 137.983C121.582 143.179 129.191 148.502 136.779 153.831C144.366 159.154 151.887 164.557 159.741 170.13C160.793 169.215 161.712 168.403 163.216 167.096C150.427 156.378 138.016 145.977 125.605 135.584C125.886 135.244 126.161 134.912 126.442 134.572C139.594 143.903 151.368 155.02 163.853 164.904C166.076 163.605 165.661 162.416 164.498 161.376C157.355 154.961 150.19 148.576 143.01 142.205C139.231 138.854 135.363 135.606 131.614 132.225C126.005 127.168 120.47 122.038 115.194 116.59C119.818 117.609 122.3 121.514 125.657 124.208C129.332 127.161 132.926 130.217 136.49 133.295C139.928 136.27 143.292 139.341 146.67 142.375C150.183 145.527 153.695 148.672 157.185 151.838C160.512 154.857 163.816 157.899 167.565 161.324C168.684 160.283 169.262 159.752 169.974 159.095C166.18 154.673 162.868 150.82 159.563 146.974C159.83 146.715 160.097 146.457 160.363 146.199C164.194 149.779 168.025 153.359 171.87 156.954C174.945 154.769 173.16 153.034 171.974 151.639C167.069 145.874 162.001 140.234 157.029 134.521C155.11 132.314 153.302 130.018 151.887 127.383C160.778 134.823 167.758 144.014 175.775 152.946C177.183 152.045 178.502 151.203 180.406 149.993C168.529 132.432 154.984 116.613 143.929 99.0218C157.348 114.612 169.27 131.347 182.088 148.125C184.022 147.062 185.83 146.073 188.216 144.759C175.501 119.683 160.623 96.2462 147.812 71.7019C148.063 71.4656 148.308 71.2221 148.56 70.9858C149.323 71.7831 150.301 72.4622 150.827 73.3923C156.125 82.7745 161.356 92.201 166.595 101.62C173.878 114.715 181.155 127.818 188.453 140.906C188.772 141.474 189.29 141.932 189.965 142.744C191.113 142.427 192.299 142.102 194.314 141.548C187.534 126.652 180.962 112.213 174.39 97.7816C174.745 97.6045 175.101 97.4347 175.457 97.2575C179.814 103.849 182.503 111.349 185.964 118.406C189.439 125.478 192.41 132.793 195.633 140.064C198.426 139.747 198.434 138.315 197.678 136.499C195.929 132.299 194.173 128.113 192.432 123.913C186.112 108.67 179.799 93.4338 173.501 78.1831C173.1 77.2087 172.93 76.1383 173.197 74.9129C183.496 95.449 191.343 117.026 200.701 138.33C201.99 137.695 202.939 137.237 204.154 136.639C202.517 131.583 200.961 126.785 199.405 121.994C199.894 121.839 200.375 121.676 200.864 121.521C202.242 125.212 203.591 128.918 205.006 132.601C205.643 134.27 206.073 136.388 209.326 134.993C207.333 123.411 202.828 112.361 201.427 100.483C201.931 101.384 202.628 102.233 202.902 103.192C205.221 111.46 207.422 119.757 209.741 128.017C210.363 130.224 211.26 132.358 212.149 134.875C213.876 134.24 215.061 133.805 216.832 133.155C214.224 112.538 208.563 92.6587 206.362 72.1817C210.171 81.9035 211.06 92.3117 213.349 102.38C215.654 112.508 217.41 122.769 219.477 133.325C221.722 133.03 223.834 132.749 225.686 132.505C225.686 124.961 225.931 117.786 225.62 110.633C225.286 102.927 224.39 95.2423 223.827 87.5431C223.115 77.8287 222.441 68.1143 221.863 58.3999C221.678 55.2848 221.833 52.1476 222.582 48.9882C224.797 62.5928 225.242 76.3155 226.094 90.0013C226.961 103.894 227.902 117.771 228.828 131.841C230.177 132.085 231.066 132.247 232.229 132.461C234.852 116.332 233.407 100.277 234.748 84.3542C236.793 88.0894 235.83 92.0682 235.978 95.9141C236.149 100.114 236.015 104.329 236.008 108.544C236.001 112.589 236.045 116.627 235.926 120.665C235.808 124.533 233.859 128.438 236.045 132.446C238.661 131.856 238.809 129.951 238.905 128.15C239.313 120.266 239.616 112.375 240.017 104.484C240.691 91.234 241.402 77.9838 242.136 64.7335C242.165 64.1725 242.543 63.6262 243.284 63.1095C244.44 67.8117 244.196 72.5286 243.855 77.253C243.647 80.0949 243.343 82.9369 243.158 85.7789C242.506 95.6631 241.765 105.54 241.298 115.431C241.039 120.938 241.254 126.475 241.254 132.454C242.18 132.299 243.344 132.114 244.529 131.915C245.203 126.541 245.818 121.588 246.433 116.642C246.811 116.649 247.196 116.657 247.574 116.672C249.116 119.329 247.137 122.149 247.219 124.873C247.3 127.648 247.234 130.431 247.234 133.118C249.931 133.974 250.079 132.151 250.383 130.741C251.368 126.135 252.294 121.521 253.176 116.893C254.354 110.714 255.473 104.529 256.622 98.3427C257.081 98.3648 257.533 98.387 257.992 98.4091C257.992 99.5828 258.17 100.786 257.963 101.915C256.318 111.017 254.591 120.104 252.932 129.198C252.672 130.623 252.62 132.085 252.413 134.041C254.273 134.27 255.651 134.439 257.422 134.654C263.95 114.73 267.306 94.327 274.027 74.9129L275.449 75.282C272.841 85.2179 270.218 95.1463 267.625 105.082C265.031 114.996 262.468 124.917 259.741 135.392C261.682 136.159 263.616 136.935 266.113 137.924C277.961 112.39 287.268 86.1627 298.493 60.7842L300.049 61.4265C289.594 86.9895 279.139 112.56 268.558 138.433C269.907 139.186 270.981 139.784 272.537 140.648C279.999 126.209 286.949 111.955 294.181 97.8407C294.699 98.0548 295.211 98.2762 295.729 98.4903C295.151 100.063 294.722 101.716 293.966 103.192C288.135 114.59 282.229 125.95 276.39 137.348C275.62 138.854 274.182 140.433 276.368 143.054C281.244 136.58 284.356 129.59 288.083 123.005C291.98 116.118 295.833 109.201 299.694 102.292C303.443 95.5819 307.177 88.8718 311.401 82.4054C309.808 89.9717 305.11 96.0912 301.702 102.786C298.115 109.836 294.107 116.672 290.239 123.574C286.475 130.298 282.659 136.994 278.695 143.999C280.028 144.685 280.984 145.173 282.162 145.785C285.289 141.061 288.261 136.558 291.239 132.055C291.684 132.328 292.128 132.601 292.573 132.875C289.787 137.651 286.993 142.419 284.178 147.239C286.875 149.343 287.964 147.35 288.979 146.014C293.855 139.57 298.634 133.044 303.45 126.556C305.103 124.326 306.777 122.112 309.059 120.348C303.65 131.059 295.485 139.902 288.831 150.126C289.957 151.344 290.935 152.399 292.373 153.957C307.236 138.477 319.573 121.256 334.808 106.632C329.287 115.601 321.552 122.791 315.017 130.948C308.4 139.208 301.405 147.158 294.225 155.669C296.033 157.087 297.686 158.379 299.753 159.988C321.3 141.777 341.387 122.26 363.12 104.61C343.121 124.371 322.011 142.914 300.79 161.826C301.99 163.081 302.731 163.856 303.85 165.022C316.728 155.241 329.421 145.608 342.113 135.975C342.425 136.248 342.736 136.521 343.04 136.794C342.462 137.547 342.01 138.47 341.284 139.031C330.332 147.468 319.336 155.847 308.385 164.277C307.229 165.17 306.258 166.307 305.199 167.333C305.517 167.79 305.843 168.255 306.162 168.713C307.518 168.041 308.985 167.532 310.215 166.676C322.419 158.224 334.6 149.734 346.759 141.223C351.872 137.643 356.903 133.952 362.001 130.35C362.764 129.811 363.705 129.516 364.854 129.553C359.445 135.023 352.776 138.802 346.707 143.342C340.365 148.088 333.911 152.702 327.457 157.301C321.159 161.796 314.802 166.203 308.496 170.625C308.755 171.496 308.778 172.042 309.052 172.404C309.437 172.906 310.015 173.26 310.756 173.888C315.461 170.92 320.092 168.004 324.716 165.089C324.923 165.384 325.131 165.679 325.338 165.974C321.789 170.677 315.476 172.094 311.475 176.124C312.853 178.819 314.505 178.051 316.017 177.291C322.048 174.249 328.05 171.156 334.052 168.063C337.757 166.159 341.447 164.232 345.403 162.808C335.912 169.924 325.071 174.729 314.127 180.457C314.95 182.229 315.595 183.617 316.447 185.455C336.727 178.206 355.14 167.79 374.834 160.6C375.042 160.918 375.175 161.036 375.205 161.176C375.234 161.331 375.234 161.582 375.146 161.649C374.479 162.151 373.849 162.749 373.093 163.081C354.739 171.201 336.378 179.298 317.462 187.64C318.055 189.633 318.64 191.619 319.41 194.224C347.108 187.381 373.782 178.206 400.998 171.06C401.153 171.599 401.309 172.138 401.457 172.67C374.538 180.516 347.619 188.363 320.285 196.336C320.885 197.834 321.337 198.978 321.989 200.61C337.712 197.443 353.161 194.342 368.603 191.235L368.921 192.416C367.973 192.785 367.047 193.294 366.061 193.501C353.006 196.217 339.935 198.89 326.872 201.569C325.116 201.931 323.137 201.931 322.456 205.083C330.636 204.921 338.186 202.935 345.818 201.695C353.48 200.447 361.09 198.875 368.781 197.834C376.501 196.786 384.096 194.527 391.943 194.557C392.01 194.963 392.069 195.369 392.136 195.775C369.21 199.768 346.285 203.754 322.937 207.814C323.419 209.268 323.745 210.265 324.056 211.217C329.754 210.745 335.119 210.294 340.483 209.852C335.475 214.03 328.672 211.106 322.582 215.691C335.697 218.51 347.826 214.613 359.793 216.613C347.96 218.178 336.097 219.064 323.804 218.798C323.693 220.902 323.619 222.319 323.501 224.556C334.459 224.969 345.011 225.361 355.562 225.767C366.098 226.173 376.635 226.593 387.164 227.693C376.79 230.011 366.41 227.428 356.029 227.73C345.47 228.04 334.874 227.295 323.797 226.999C323.641 229.199 323.515 230.949 323.382 232.927C328.332 235.555 333.629 235.872 338.698 236.721C360.156 240.301 381.666 243.608 403.154 247.063C404.339 247.255 405.458 247.875 406.607 248.288C406.503 248.709 406.399 249.137 406.303 249.558C392.477 247.373 378.65 245.21 364.831 242.988C351.027 240.766 337.238 238.478 322.982 236.145C322.804 237.6 322.663 238.795 322.471 240.397C338.275 244.376 353.739 248.274 369.203 252.171C369.114 252.533 369.025 252.902 368.936 253.264C353.072 250.857 337.734 245.941 321.759 242.516C321.448 245.594 323.486 245.875 325.108 246.362C331.577 248.296 338.068 250.171 344.566 252.024C357.555 255.729 370.559 259.398 383.548 263.126C385.119 263.576 386.623 264.263 388.098 265.732C387.112 265.732 386.067 265.953 385.163 265.695C374.123 262.543 363.105 259.287 352.072 256.113C341.854 253.175 331.629 250.296 321.174 247.329C320.589 248.207 320.077 248.975 319.448 249.912C323.804 254.179 330.243 253.655 334.659 257.272C328.88 257.183 323.767 253.02 317.936 253.625C317.736 254.201 317.543 254.77 317.343 255.345C318.469 256.135 319.507 257.154 320.744 257.685C328.487 261.037 336.29 264.255 344.047 267.577C346.144 268.478 348.152 269.577 350.205 270.581L349.597 271.917C338.742 267.392 327.88 262.875 316.654 258.202C315.787 259.619 315.039 260.83 314.357 261.937C314.831 262.705 314.994 263.288 315.372 263.51C318.721 265.466 322.048 267.481 325.486 269.26C338.69 276.081 351.939 282.813 365.15 289.612C366.765 290.446 368.277 291.472 370.848 293.022C366.847 293.731 364.742 291.929 362.571 290.8C350.886 284.74 339.253 278.576 327.613 272.419C324.33 270.685 321.115 268.824 317.832 267.09C316.513 266.396 315.098 265.879 313.268 265.075C311.964 266.898 310.756 268.581 309.081 270.906C332.474 287.271 355.466 303.356 378.465 319.441L377.613 320.696C369.425 316.393 362.305 310.399 354.665 305.224C346.982 300.02 339.372 294.712 331.785 289.368C324.079 283.935 316.439 278.399 308.437 272.67C307.54 273.741 306.755 274.678 305.443 276.243C318.084 286.747 330.443 297.008 342.691 307.188C342.469 307.712 342.447 307.889 342.343 307.977C342.239 308.073 342.047 308.147 341.913 308.125C341.587 308.066 341.247 307.992 340.965 307.83C340.38 307.505 339.772 307.173 339.261 306.745C327.717 297.207 316.18 287.655 303.895 277.491C303.302 278.037 302.643 278.65 301.598 279.617C319.322 295.428 336.193 310.495 353.065 325.553C352.828 325.871 352.583 326.181 352.346 326.498C350.879 325.524 349.279 324.712 347.974 323.553C340.424 316.835 332.948 310.037 325.427 303.283C318.536 297.089 311.66 290.881 304.702 284.762C303.295 283.522 301.746 281.765 298.975 284.016C301.865 288.984 306.925 292.04 309.763 297.37C308.778 296.846 307.629 296.491 306.836 295.761C304.236 293.354 301.768 290.807 299.242 288.327C297.975 287.087 296.67 285.98 294.477 288.143C301.146 298.056 310.186 306.176 317.188 315.942C311.63 313.248 308.83 307.734 304.695 303.615C300.442 299.378 296.826 294.498 292.669 289.597C291.195 290.903 290.12 291.848 288.705 293.103C300.02 311.011 314.268 326.513 325.175 344.369C317.291 337.283 312.349 327.879 305.718 319.81C299.116 311.779 293.195 303.194 286.697 294.476C284.63 295.805 282.851 296.942 280.443 298.484C287.505 311.056 294.499 323.295 301.287 335.644C307.926 347.728 315.128 359.524 321.381 371.815C320.855 372.103 320.329 372.383 319.803 372.671C306.199 348.555 292.588 324.439 278.784 299.968C277.702 300.382 276.546 300.824 274.723 301.526C281.533 316.437 288.186 331.001 294.84 345.573C294.448 345.757 294.047 345.949 293.655 346.134C285.556 332.308 280.377 316.983 272.693 302.662C269.937 304.641 271.293 306.471 271.9 307.992C275.227 316.267 278.68 324.498 282.118 332.736C286.593 343.454 291.106 354.158 295.566 364.883C295.996 365.917 296.144 367.068 295.937 368.375C291.528 362.167 289.439 354.866 286.334 348.068C283.126 341.026 280.406 333.762 277.45 326.602C274.501 319.471 271.522 312.347 268.462 304.988C267.254 305.268 266.35 305.482 264.913 305.822C266.61 311.373 268.232 316.673 269.855 321.973L268.877 322.328C265.076 317.943 266.187 310.827 261.556 306.907C261.052 307.055 260.549 307.195 260.045 307.343C260.171 308.834 260.082 310.384 260.46 311.809C262.705 320.268 265.091 328.691 267.365 337.135C267.862 338.973 268.136 340.863 267.84 342.9C263.468 332.057 260.778 320.726 257.563 309.277H252.961C252.746 310.768 252.287 311.941 252.472 313.004C253.643 319.796 254.895 326.572 256.221 333.334C258.511 345.056 260.889 356.756 263.172 368.478C263.349 369.394 263.105 370.383 262.512 371.416C259.081 361.495 257.963 351.094 255.806 340.93C253.65 330.765 251.82 320.541 249.723 309.734C247.389 310.31 245.529 310.768 243.588 311.247C243.588 317.972 243.551 324.321 243.61 330.662C243.632 332.5 244.003 334.33 244.129 336.176C245.114 350.578 246.167 364.979 247.011 379.389C247.3 384.349 247.056 389.347 246.456 394.359C244.233 389.184 245.492 383.677 244.877 378.37C244.24 372.87 243.899 367.342 243.521 361.82C243.129 356.121 242.884 350.415 242.499 344.724C242.121 339.202 241.536 333.688 241.254 328.159C240.972 322.652 240.95 317.131 240.809 311.292H236.556C236.356 312.606 236.104 313.58 236.075 314.555C235.712 327.665 235.415 340.775 235.023 353.885C234.971 355.737 234.511 357.575 234.237 359.421C233.844 359.421 233.452 359.428 233.052 359.436C232.696 358.417 232.029 357.398 232.044 356.387C232.125 351.353 232.488 346.318 232.57 341.284C232.726 331.865 232.785 322.438 232.8 313.012C232.8 312.377 232.073 311.735 231.192 311.151C228.539 322.63 229.087 334.323 228.065 345.861C227.05 357.324 227.191 368.884 225.968 380.333C225.59 380.37 225.212 380.407 224.834 380.444C224.59 379.772 224.108 379.086 224.138 378.429C224.664 368.198 225.197 357.974 225.849 347.75C226.376 339.542 227.146 331.355 227.635 323.147C227.865 319.331 227.672 315.492 227.672 311.462C226.487 311.27 225.723 311.152 224.382 310.937C223.627 316.363 222.908 321.538 222.196 326.712C218.714 321.456 223.79 315.477 220.678 310.317C220.233 310.244 219.796 310.162 219.351 310.089C218.818 311.513 218.077 312.901 217.795 314.37C216.017 323.789 214.357 333.223 212.631 342.65C212.49 343.417 212.149 344.148 211.793 345.218C210.875 342.964 210.904 339.207 211.882 333.946C212.623 329.982 213.357 326.011 214.113 322.047C214.831 318.253 215.58 314.466 216.417 310.118C214.817 309.587 213.357 309.107 211.438 308.465C204.554 328.668 200.931 349.227 194.077 368.884C193.988 361.909 196.9 355.575 198.464 348.961C200.049 342.244 201.642 335.533 203.384 328.853C205.162 322.025 207.111 315.241 209.119 307.955C207.096 307.202 205.273 306.531 202.68 305.571C200.649 309.978 198.56 314.119 196.804 318.393C188.49 338.641 180.273 358.926 171.996 379.189C171.515 380.37 170.789 381.455 169.625 382.341C173.412 369.187 179.243 356.837 184.222 344.17C189.276 331.341 194.707 318.659 200.197 305.364C198.953 304.766 197.752 304.19 196.167 303.423C188.712 317.699 181.51 331.503 174.316 345.3C173.916 345.13 173.515 344.96 173.115 344.79C173.767 343.218 174.308 341.594 175.079 340.088C180.918 328.698 186.83 317.337 192.647 305.933C193.366 304.515 195.137 302.795 191.943 301.046C179.732 320.866 169.455 341.682 157.637 361.598C157.14 361.318 156.644 361.045 156.147 360.764C167.314 340.56 178.48 320.357 189.809 299.857C188.757 299.208 187.831 298.639 186.534 297.85C183.4 302.655 180.406 307.247 177.413 311.845C177.057 311.676 176.694 311.506 176.338 311.329C176.472 308.627 178.658 306.722 179.917 304.478C181.229 302.138 182.666 299.865 184.185 297.325C183.578 296.58 183.015 295.893 181.933 294.557C174.59 304.478 167.551 313.986 160.519 323.501C160.156 323.28 159.793 323.051 159.43 322.829C159.971 320.017 162.334 318.12 163.868 315.817C165.55 313.292 167.225 310.76 168.996 308.295C170.759 305.829 172.634 303.445 174.456 301.024C176.257 298.625 178.057 296.226 180.065 293.546C178.65 292.454 177.517 291.575 175.894 290.32C173.641 292.631 171.456 294.675 169.514 296.919C162.016 305.564 154.658 314.333 147.108 322.925C143.447 327.089 139.476 330.979 135.645 334.995L135.489 334.84V334.854ZM234.052 308.553C281.673 308.007 320.707 271.039 320.848 222.024C320.989 173.917 284.015 135.296 234.119 135.222C184.333 135.148 147.441 173.341 147.071 221.219C146.685 270.758 186.371 308.155 234.052 308.561V308.553Z" fill="#A77D32"/>
<path d="M150.286 136.027C152.05 137.828 153.813 139.629 155.569 141.43C152.057 141.511 150.686 139.223 149.041 137.237C149.456 136.831 149.871 136.433 150.286 136.027Z" fill="#A77D32"/>
<path d="M392.684 265.997C395.226 266.514 397.76 267.038 401.398 267.776C396.952 269.4 396.744 269.363 392.684 265.997Z" fill="#A77D32"/>
<path d="M198.204 87.9639C198.96 90.2965 199.716 92.6292 200.472 94.9618C200.116 95.1021 199.753 95.2423 199.397 95.3826C197.322 93.6257 197.545 90.8871 196.774 88.5766L198.212 87.9713L198.204 87.9639Z" fill="#A77D32"/>
<path d="M358.081 330.248C360.119 332.057 362.156 333.865 364.194 335.674C363.913 336.021 363.631 336.36 363.357 336.707C361.171 335.024 358.993 333.348 356.807 331.665C357.229 331.193 357.659 330.721 358.081 330.248Z" fill="#A77D32"/>
<path d="M100.449 317.847C98.5006 319.426 96.5445 320.999 94.5957 322.578C94.3142 322.276 94.0326 321.973 93.7584 321.671L99.1304 316.496C99.575 316.946 100.012 317.396 100.457 317.847H100.449Z" fill="#A77D32"/>
<path d="M300.434 380.776C299.19 378.488 297.952 376.2 296.707 373.911C297.137 373.668 297.567 373.417 297.997 373.173C299.249 375.395 300.501 377.624 301.761 379.846L300.442 380.776H300.434Z" fill="#A77D32"/>
<path d="M396.426 193.309C398.893 192.667 401.353 192.025 404.48 191.205C401.968 193.981 400.798 194.32 396.426 193.309Z" fill="#A77D32"/>
<path d="M150.664 372.893C151.746 370.516 152.835 368.146 153.917 365.769L155.117 366.279C154.124 368.692 153.132 371.106 152.139 373.52C151.65 373.313 151.153 373.107 150.664 372.893Z" fill="#A77D32"/>
<path d="M243.551 51.4168C243.714 53.5944 243.884 55.7646 244.047 57.9423C243.558 57.9939 243.069 58.0456 242.58 58.0973C242.358 55.9197 242.136 53.7347 241.913 51.557C242.462 51.5127 243.003 51.4611 243.551 51.4168Z" fill="#A77D32"/>
<path d="M349.13 160.054C352.465 158.135 354.821 156.777 358.074 154.909C355.621 158.792 354.295 159.545 349.13 160.054Z" fill="#A77D32"/>
<path d="M122.248 234.44C120.055 234.831 117.854 235.223 114.868 235.762C116.913 233.773 119.354 233.001 122.189 233.444C122.211 233.776 122.226 234.108 122.248 234.44Z" fill="#A77D32"/>
<path d="M248.953 103.805C248.856 105.953 248.76 108.094 248.656 110.242C248.256 110.235 247.849 110.22 247.448 110.213V103.842C247.952 103.827 248.449 103.813 248.953 103.805Z" fill="#A77D32"/>
<path d="M271.055 327.879C271.885 329.997 272.723 332.116 273.552 334.242L272.552 334.692C270.833 332.883 269.907 330.691 269.833 328.1C270.24 328.026 270.648 327.952 271.055 327.879Z" fill="#A77D32"/>
<path d="M67.8322 174.353C70.0625 174.928 72.3002 175.504 74.5305 176.087L74.249 177.35C71.9742 176.885 69.7069 176.412 67.4321 175.947C67.5655 175.416 67.6989 174.892 67.8248 174.36L67.8322 174.353Z" fill="#A77D32"/>
<path d="M64.7498 250.879C67.1802 250.23 69.6031 249.58 72.8115 248.731C69.5513 251.743 68.7733 251.972 64.7498 250.879Z" fill="#A77D32"/>
<path d="M353.406 210.007C351.205 210.228 349.004 210.457 346.796 210.678C346.744 210.169 346.693 209.66 346.641 209.158C348.849 208.958 351.049 208.759 353.258 208.56C353.309 209.04 353.361 209.527 353.406 210.007Z" fill="#A77D32"/>
<path d="M356.229 273.453C358.14 274.353 360.06 275.254 361.971 276.155C361.742 276.634 361.512 277.107 361.282 277.587C359.296 276.671 357.311 275.756 355.332 274.848L356.229 273.46V273.453Z" fill="#A77D32"/>
<path d="M101.65 227.177C99.5453 229.015 97.3966 229.288 95.2255 227.177H101.65Z" fill="#A77D32"/>
<path d="M313.105 301.563C315.535 302.626 317.647 304.013 319.329 307.409C315.565 306.206 313.838 304.405 313.083 301.585L313.105 301.563Z" fill="#A77D32"/>
<path d="M151.798 333.902C152.279 330.979 153.924 328.883 156.651 327.546C155.866 330.256 154.384 332.47 151.827 333.924L151.798 333.895V333.902Z" fill="#A77D32"/>
<path d="M117.565 284.673C115.52 285.78 113.475 286.895 111.438 288.002C111.215 287.582 110.986 287.153 110.763 286.733C112.823 285.655 114.891 284.577 116.95 283.499L117.573 284.673H117.565Z" fill="#A77D32"/>
<path d="M106.31 165.908C108.941 167.163 111.067 168.182 113.201 169.208C109.798 169.099 107.501 167.999 106.31 165.908Z" fill="#A77D32"/>
<path d="M104.162 107.54C106.481 108.906 108.793 110.272 111.112 111.645C110.852 112.021 110.593 112.39 110.334 112.767C107.385 112.243 105.799 109.843 104.102 107.607L104.169 107.54H104.162Z" fill="#A77D32"/>
<path d="M168.981 322.187C170.263 320.253 171.544 318.327 172.826 316.393C173.197 316.621 173.56 316.85 173.93 317.079C172.723 319.065 171.507 321.043 170.3 323.029C169.862 322.748 169.425 322.468 168.981 322.187Z" fill="#A77D32"/>
<path d="M368.492 125.552C370.24 124.098 371.982 122.643 373.73 121.182C374.041 121.536 374.345 121.89 374.656 122.245C372.952 123.684 371.241 125.124 369.536 126.563C369.188 126.224 368.84 125.884 368.499 125.544L368.492 125.552Z" fill="#A77D32"/>
<path d="M346.596 262.624C344.499 261.967 342.41 261.302 340.313 260.645C340.461 260.18 340.609 259.723 340.758 259.258C342.84 259.952 344.922 260.645 347.004 261.339C346.863 261.768 346.73 262.196 346.589 262.624H346.596Z" fill="#A77D32"/>
<path d="M373.338 216.584C370.952 216.968 368.573 217.344 366.187 217.728C368.158 214.753 370.789 215.905 373.338 216.584Z" fill="#A77D32"/>
<path d="M313.098 78.2716C313.246 75.4444 314.29 73.0601 316.565 71.2885C316.506 74.16 315.506 76.5591 313.098 78.2716Z" fill="#A77D32"/>
<path d="M269.648 349.256C270.314 351.36 270.989 353.464 271.656 355.56C271.248 355.708 270.833 355.848 270.426 355.996C269.648 353.936 268.877 351.869 268.099 349.81C268.618 349.625 269.136 349.441 269.648 349.256Z" fill="#A77D32"/>
<path d="M121.782 181.225C123.686 181.793 125.583 182.355 127.487 182.923C127.376 183.366 127.265 183.809 127.154 184.252L121.389 182.856C121.515 182.31 121.648 181.771 121.774 181.225H121.782Z" fill="#A77D32"/>
<path d="M167.039 63.1021C169.588 64.7483 170.174 67.3614 170.596 70.0484C168.203 68.3358 167.143 65.9589 167.017 63.1243L167.039 63.1021Z" fill="#A77D32"/>
<path d="M260.156 85.587C259.711 87.831 259.274 90.0825 258.83 92.3265C258.378 92.2379 257.918 92.142 257.466 92.0534C257.948 89.8167 258.422 87.5727 258.904 85.336L260.156 85.587Z" fill="#A77D32"/>
<path d="M325.39 326.912C323.678 325.11 321.974 323.302 320.263 321.501C320.403 321.346 320.552 321.191 320.692 321.036C322.478 322.763 324.256 324.498 326.042 326.225C325.827 326.454 325.605 326.683 325.39 326.904V326.912Z" fill="#A77D32"/>
<path d="M204.688 67.2138C204.28 65.2945 203.873 63.3826 203.458 61.4634L204.858 61.1681C205.236 63.0874 205.606 65.014 205.984 66.9333C205.547 67.0218 205.117 67.1178 204.68 67.2064L204.688 67.2138Z" fill="#A77D32"/>
<path d="M138.001 281.588C136.378 282.82 134.756 284.053 133.133 285.278L132.288 284.289C133.837 282.983 135.393 281.684 136.942 280.377L138.001 281.588Z" fill="#A77D32"/>
<path d="M312.016 115.616C312.534 112.936 313.927 110.899 317.017 108.729C316.121 112.493 314.35 114.272 312.127 115.727L312.016 115.616Z" fill="#A77D32"/>
<path d="M336.119 159.774C334.37 160.918 332.614 162.055 330.866 163.199C330.614 162.808 330.362 162.416 330.103 162.033C331.851 160.896 333.607 159.752 335.356 158.615C335.608 159.006 335.86 159.39 336.112 159.781L336.119 159.774Z" fill="#A77D32"/>
<path d="M298.686 122.201C297.678 123.972 296.678 125.744 295.67 127.515C295.263 127.287 294.855 127.058 294.448 126.829C295.455 125.013 296.456 123.197 297.463 121.389C297.871 121.662 298.278 121.927 298.693 122.201H298.686Z" fill="#A77D32"/>
<path d="M139.957 95.2054C138.905 93.6848 137.853 92.1641 136.408 90.0677C138.661 90.9092 139.844 92.6218 139.957 95.2054Z" fill="#A77D32"/>
<path d="M210.719 351.5C210.415 353.597 210.104 355.686 209.8 357.782C209.37 357.723 208.941 357.664 208.511 357.605C208.778 355.509 209.052 353.412 209.319 351.308C209.785 351.375 210.252 351.434 210.719 351.5Z" fill="#A77D32"/>
<path d="M378.45 299.629C376.857 298.75 375.264 297.872 373.671 297.001C373.864 296.609 374.064 296.218 374.256 295.827C375.909 296.624 377.561 297.429 379.213 298.226C378.961 298.691 378.71 299.156 378.45 299.629Z" fill="#A77D32"/>
<path d="M328.643 349.455C329.584 350.792 330.525 352.128 331.458 353.464C331.095 353.752 330.732 354.032 330.369 354.32C329.376 353.043 328.384 351.759 327.398 350.482C327.813 350.142 328.228 349.802 328.643 349.463V349.455Z" fill="#A77D32"/>
<path d="M146.982 121.758C145.285 120.244 143.588 118.731 141.899 117.225C142.084 117.048 142.262 116.871 142.447 116.694C144.151 118.2 145.855 119.705 147.552 121.211C147.36 121.396 147.174 121.58 146.982 121.765V121.758Z" fill="#A77D32"/>
<path d="M130.288 342.325L126.991 345.75C126.657 345.455 126.316 345.167 125.983 344.871C126.968 343.639 127.961 342.406 128.947 341.181L130.288 342.332V342.325Z" fill="#A77D32"/>
<path d="M197.033 115.852L194.677 109.866C195.063 109.718 195.448 109.57 195.833 109.423C196.626 111.416 197.419 113.409 198.212 115.402C197.819 115.55 197.434 115.705 197.041 115.852H197.033Z" fill="#A77D32"/>
<path d="M393.388 228.158H397.315C397.345 228.557 397.374 228.948 397.397 229.347C396.1 229.428 394.803 229.509 393.499 229.59C393.462 229.118 393.418 228.638 393.381 228.166L393.388 228.158Z" fill="#A77D32"/>
<path d="M117.558 313.019C118.973 311.949 120.389 310.871 121.804 309.801C122.078 310.148 122.345 310.487 122.619 310.834C121.196 311.897 119.774 312.96 118.351 314.023C118.092 313.691 117.825 313.359 117.565 313.026L117.558 313.019Z" fill="#A77D32"/>
<path d="M374.138 253.153C375.486 253.692 376.835 254.231 378.183 254.762C378.05 255.153 377.917 255.545 377.783 255.936C376.398 255.53 375.02 255.117 373.634 254.711C373.797 254.194 373.967 253.67 374.13 253.153H374.138Z" fill="#A77D32"/>
<path d="M300.057 89.1671C298.916 91.0421 298.108 92.356 296.819 94.4598C297.026 91.8467 298.105 90.0825 300.057 89.1671Z" fill="#A77D32"/>
<path d="M193.017 374.546C192.603 376.155 192.188 377.757 191.78 379.366C191.343 379.256 190.913 379.152 190.476 379.042L191.699 374.325C192.136 374.398 192.58 374.472 193.017 374.546Z" fill="#A77D32"/>
<path d="M378.739 190.356C377.265 190.718 375.798 191.08 374.323 191.449C374.227 190.999 374.13 190.548 374.034 190.098C375.531 189.84 377.02 189.574 378.517 189.316C378.591 189.662 378.672 190.017 378.747 190.364L378.739 190.356Z" fill="#A77D32"/>
<path d="M349.034 314.761C347.967 313.986 346.893 313.204 345.826 312.429C346.055 312.067 346.285 311.705 346.507 311.351C347.648 312.045 348.797 312.739 349.938 313.432C349.634 313.875 349.338 314.318 349.034 314.769V314.761Z" fill="#A77D32"/>
<path d="M234.17 78.9729V73.5473C235.03 75.2377 235.608 75.9316 235.689 76.6772C235.771 77.4154 235.341 78.2052 235.134 78.9655H234.17V78.9729Z" fill="#A77D32"/>
<path d="M337.683 101.945L341.343 98.1286C341.647 98.3869 341.951 98.6527 342.247 98.911C341.061 100.225 339.876 101.546 338.683 102.86C338.349 102.558 338.009 102.255 337.675 101.945H337.683Z" fill="#A77D32"/>
<path d="M275.568 68.7787C275.79 67.3319 276.012 65.8924 276.227 64.4456C276.657 64.5047 277.087 64.5711 277.517 64.6301C277.287 66.0696 277.065 67.509 276.835 68.9485C276.413 68.8894 275.99 68.8377 275.568 68.7787Z" fill="#A77D32"/>
<path d="M350.309 131.317C349.227 132.085 348.145 132.852 347.063 133.62C346.819 133.325 346.567 133.03 346.322 132.734C347.322 131.834 348.323 130.941 349.33 130.04C349.656 130.461 349.983 130.889 350.309 131.31V131.317Z" fill="#A77D32"/>
<path d="M93.3435 147.756C92.0839 146.988 90.7427 146.162 89.3942 145.342C89.5942 144.981 89.8017 144.619 90.0018 144.257C91.291 145.077 92.5877 145.881 93.8622 146.723C93.9659 146.789 94.0104 147.055 93.9659 147.195C93.9215 147.328 93.7362 147.417 93.3435 147.764V147.756Z" fill="#A77D32"/>
<path d="M379.925 158.777C381.162 158.216 382.399 157.655 383.629 157.094C383.815 157.463 384 157.832 384.193 158.201C382.955 158.851 381.718 159.493 380.48 160.143C380.295 159.685 380.11 159.235 379.925 158.777Z" fill="#A77D32"/>
<path d="M172.13 350.563C171.5 351.825 170.87 353.095 170.24 354.357C169.862 354.187 169.485 354.025 169.107 353.855C169.648 352.556 170.181 351.257 170.722 349.957C171.189 350.157 171.663 350.356 172.13 350.555V350.563Z" fill="#A77D32"/>
<path d="M296.352 350.592C297.122 351.943 297.886 353.294 298.656 354.652C298.3 354.852 297.945 355.043 297.582 355.243C296.841 353.877 296.092 352.519 295.352 351.153C295.685 350.969 296.018 350.784 296.352 350.6V350.592Z" fill="#A77D32"/>
<path d="M171.233 89.1524C171.87 90.422 172.508 91.6843 173.138 92.954L171.945 93.5593C171.307 92.2896 170.678 91.0273 170.04 89.7577C170.44 89.5584 170.833 89.359 171.233 89.1524Z" fill="#A77D32"/>
<path d="M263.661 377.676C263.95 379.056 264.239 380.437 264.52 381.817C264.268 381.935 264.016 382.046 263.764 382.164C263.342 381.478 262.764 380.835 262.549 380.082C262.342 379.352 262.505 378.51 262.505 377.72C262.89 377.706 263.275 377.683 263.661 377.669V377.676Z" fill="#A77D32"/>
<path d="M225.116 392.919V386.04C225.279 386.04 225.442 386.032 225.612 386.025V392.905C225.449 392.905 225.286 392.912 225.116 392.919Z" fill="#A77D32"/>
<path d="M94.8106 253.714C92.7137 254.378 91.5726 254.747 89.8165 255.301C90.9428 254.041 92.6075 253.512 94.8106 253.714Z" fill="#A77D32"/>
<path d="M221.122 334.293C221.004 335.991 220.878 337.689 220.759 339.387C220.537 339.387 220.307 339.387 220.085 339.394V334.256C220.433 334.271 220.774 334.279 221.122 334.293Z" fill="#A77D32"/>
<path d="M119.618 129.346L121.996 131.671C121.707 131.959 121.418 132.24 121.137 132.528C120.344 131.753 119.551 130.985 118.758 130.21C119.047 129.922 119.336 129.634 119.618 129.346Z" fill="#A77D32"/>
<path d="M87.7418 285.507L83.8296 286.747C83.7036 286.423 83.5776 286.09 83.4517 285.766C84.741 285.256 86.0228 284.74 87.3121 284.23C87.4529 284.658 87.6011 285.087 87.7418 285.515V285.507Z" fill="#A77D32"/>
<path d="M88.0753 228.299C87.3047 228.336 86.5267 228.372 85.7561 228.409C85.7116 228.121 85.6746 227.834 85.6301 227.546C86.3785 227.383 87.1194 227.221 87.8678 227.058C87.9345 227.472 88.0012 227.885 88.0679 228.299H88.0753Z" fill="#A77D32"/>
<path d="M76.1606 138.005C76.9016 138.536 77.6351 139.068 78.3761 139.599C78.2131 139.858 78.0501 140.123 77.8871 140.382C77.0942 139.946 76.294 139.518 75.5012 139.083C75.7235 138.721 75.9383 138.367 76.1606 138.005Z" fill="#A77D32"/>
<path d="M366.098 152.296C365.135 152.85 364.164 153.403 363.201 153.957C363.016 153.632 362.838 153.307 362.653 152.982C363.631 152.451 364.609 151.927 365.587 151.395C365.758 151.698 365.928 151.993 366.098 152.296Z" fill="#A77D32"/>
<path d="M365.795 207.556C366.699 207.253 367.603 206.951 368.507 206.648C368.618 206.995 368.729 207.334 368.833 207.681C367.929 207.954 367.017 208.228 366.113 208.501C366.002 208.183 365.898 207.873 365.787 207.556H365.795Z" fill="#A77D32"/>
<path d="M208.133 365.105C207.992 366.064 207.859 367.031 207.718 367.991C207.407 367.954 207.096 367.917 206.785 367.88C206.896 366.913 207.014 365.954 207.125 364.987C207.459 365.031 207.792 365.068 208.133 365.112V365.105Z" fill="#A77D32"/>
<path d="M233.126 368.619V364.418C233.489 364.433 233.844 364.455 234.207 364.47C234.126 365.924 234.037 367.371 233.956 368.825C233.681 368.759 233.4 368.685 233.126 368.619Z" fill="#A77D32"/>
<path d="M93.8844 190.113C92.7285 189.913 91.5652 189.721 90.4093 189.522C90.3723 189.286 90.3278 189.05 90.2907 188.821C90.7427 188.681 91.2392 188.356 91.6467 188.444C92.4914 188.622 93.2842 189.02 94.0993 189.33C94.0252 189.596 93.9585 189.854 93.8844 190.12V190.113Z" fill="#A77D32"/>
<path d="M105.429 290.586L103.346 292.18L102.746 291.546C103.384 290.933 104.013 290.32 104.651 289.715C104.91 290.003 105.177 290.298 105.436 290.586H105.429Z" fill="#A77D32"/>
<path d="M98.8414 164.852L96.7667 163.236C96.9075 163.014 97.0557 162.785 97.1965 162.564C98.0041 163 98.8118 163.428 99.6194 163.863C99.3601 164.195 99.1008 164.52 98.8414 164.852Z" fill="#A77D32"/>
<path d="M387.868 325.694C388.335 326.181 388.801 326.668 389.268 327.155L388.298 328.277C387.705 327.908 387.112 327.539 386.527 327.17C386.979 326.675 387.423 326.181 387.875 325.694H387.868Z" fill="#A77D32"/>
<path d="M219.351 22.9896C219.173 22.3474 219.003 21.7052 218.536 20C219.722 20.967 220.233 21.1958 220.411 21.5797C220.559 21.9045 220.314 22.4065 220.24 22.8346C219.944 22.8863 219.648 22.9379 219.351 22.9896Z" fill="#A77D32"/>
<path d="M373.034 96.1281C372.567 96.6301 372.093 97.1247 371.626 97.6266C371.233 97.2871 370.848 96.9475 370.455 96.6006C370.841 96.01 371.226 95.4195 371.611 94.8289L373.034 96.1281Z" fill="#A77D32"/>
<path d="M261.719 75.3706C261.63 76.2786 261.541 77.1791 261.453 78.0871H260.682C260.615 77.1939 260.556 76.3007 260.489 75.4075C260.897 75.3928 261.312 75.3854 261.719 75.3706Z" fill="#A77D32"/>
<path d="M405.154 169.636C405.836 169.54 406.525 169.451 407.207 169.355C407.281 169.621 407.355 169.887 407.429 170.145C406.725 170.381 406.014 170.618 405.31 170.861C405.258 170.455 405.206 170.042 405.154 169.636Z" fill="#A77D32"/>
<path d="M221.389 44.2196C221.211 43.5774 221.033 42.9425 220.559 41.2299C221.752 42.1896 222.263 42.4258 222.441 42.8097C222.589 43.1344 222.345 43.6364 222.278 44.0645C221.982 44.1162 221.685 44.1679 221.389 44.2196Z" fill="#A77D32"/>
<path d="M137.727 112.759C136.964 112.021 136.208 111.275 135.445 110.537C135.771 110.176 136.097 109.814 136.423 109.46C137.26 110.146 138.098 110.833 138.927 111.519C138.527 111.932 138.127 112.346 137.72 112.759H137.727Z" fill="#A77D32"/>
<path d="M400.872 336.663C400.175 336.154 399.479 335.644 398.782 335.142C398.938 334.899 399.093 334.655 399.249 334.411L401.59 335.755C401.353 336.058 401.116 336.36 400.879 336.663H400.872Z" fill="#A77D32"/>
<path d="M145.722 341.402C146.226 340.701 146.73 339.999 147.226 339.291C147.471 339.438 147.723 339.586 147.967 339.726C147.552 340.538 147.13 341.35 146.715 342.155C146.381 341.904 146.048 341.646 145.715 341.395L145.722 341.402Z" fill="#A77D32"/>
<path d="M431.866 251.655C432.54 251.581 433.222 251.507 433.896 251.433C433.933 251.765 433.963 252.09 434 252.422C433.318 252.489 432.644 252.555 431.962 252.629C431.933 252.304 431.896 251.979 431.866 251.662V251.655Z" fill="#A77D32"/>
<path d="M410.578 228.144C411.304 228.188 412.03 228.232 412.757 228.284C412.734 228.579 412.72 228.882 412.697 229.177C411.971 229.118 411.245 229.059 410.519 229C410.541 228.712 410.556 228.431 410.578 228.144Z" fill="#A77D32"/>
<path d="M322.604 102.565L321.144 104.757C320.892 104.617 320.633 104.47 320.381 104.329C320.781 103.517 321.189 102.705 321.589 101.893C321.93 102.115 322.263 102.344 322.604 102.565Z" fill="#A77D32"/>
<path d="M72.8263 293.155C72.3521 293.649 71.8705 294.137 71.3963 294.631C70.9961 294.284 70.596 293.93 70.1959 293.583C70.5738 293 70.9591 292.409 71.337 291.826C71.8334 292.269 72.3299 292.712 72.8263 293.155Z" fill="#A77D32"/>
<path d="M380.125 215.329C380.851 215.299 381.577 215.262 382.303 215.233C382.34 215.499 382.37 215.772 382.407 216.037C381.688 216.2 380.962 216.362 380.243 216.525C380.206 216.126 380.162 215.727 380.125 215.321V215.329Z" fill="#A77D32"/>
<path d="M58.3776 194.83H55.5249C55.4804 194.579 55.4286 194.32 55.3841 194.069C55.8509 193.907 56.3325 193.604 56.7919 193.641C57.1402 193.663 57.4588 194.114 58.3776 194.837V194.83Z" fill="#A77D32"/>
<path d="M84.6891 357.509C85.1781 357.014 85.6672 356.527 86.1636 356.033C86.5489 356.372 86.9416 356.704 87.3269 357.044L86.1636 358.838C85.6746 358.395 85.1855 357.952 84.6965 357.509H84.6891Z" fill="#A77D32"/>
<path d="M272.826 362.189C273.078 363.016 273.33 363.843 273.582 364.662L272.767 364.987C272.404 364.16 272.041 363.333 271.678 362.506C272.063 362.396 272.441 362.292 272.826 362.182V362.189Z" fill="#A77D32"/>
<path d="M48.4561 192.682C49.1675 192.733 49.8788 192.778 50.5975 192.829C50.642 193.095 50.6938 193.353 50.7383 193.619C50.2493 193.796 49.7602 194.114 49.2786 194.114C48.8266 194.114 48.382 193.759 47.9375 193.567C48.1079 193.272 48.2857 192.984 48.4561 192.689V192.682Z" fill="#A77D32"/>
<path d="M364.713 100.816C365.372 100.498 366.024 100.181 366.684 99.8559L367.351 100.373C366.965 100.963 366.58 101.554 366.195 102.152C365.698 101.709 365.209 101.258 364.713 100.816Z" fill="#A77D32"/>
<path d="M427.872 163.251C427.183 163.472 426.487 163.701 425.798 163.922C425.709 163.649 425.62 163.376 425.531 163.103C426.22 162.881 426.916 162.653 427.605 162.431C427.694 162.704 427.783 162.977 427.872 163.251Z" fill="#A77D32"/>
<path d="M195.507 79.1205C195.729 79.8144 195.952 80.5083 196.167 81.1948C195.892 81.2834 195.611 81.3646 195.337 81.4532C195.114 80.7593 194.892 80.0654 194.67 79.3789C194.944 79.2903 195.226 79.2091 195.5 79.1205H195.507Z" fill="#A77D32"/>
<path d="M412.675 250.51C411.971 250.311 411.26 250.119 410.556 249.92C410.623 249.661 410.697 249.396 410.763 249.137C411.475 249.314 412.186 249.499 412.897 249.676C412.823 249.957 412.749 250.23 412.675 250.51Z" fill="#A77D32"/>
<path d="M145.292 65.4938C145.618 66.0548 145.937 66.6158 146.263 67.1842L145.596 67.6567C145.166 67.1621 144.744 66.6749 144.314 66.1803L145.292 65.4938Z" fill="#A77D32"/>
<path d="M107.281 176.538C107.97 176.767 108.659 176.995 109.356 177.232C109.267 177.505 109.17 177.778 109.082 178.058C108.392 177.829 107.696 177.601 107.007 177.372C107.096 177.099 107.192 176.818 107.281 176.545V176.538Z" fill="#A77D32"/>
<path d="M370.781 281.122C370.077 280.879 369.366 280.635 368.662 280.392C368.758 280.119 368.855 279.838 368.951 279.565C369.655 279.809 370.366 280.052 371.07 280.296C370.974 280.569 370.878 280.849 370.781 281.122Z" fill="#A77D32"/>
<path d="M163.742 57.6175C163.379 57.0638 163.009 56.5102 162.646 55.9566C162.875 55.8016 163.097 55.6465 163.327 55.4915C163.705 56.0304 164.09 56.5766 164.468 57.1155C164.224 57.2779 163.979 57.4477 163.735 57.6101L163.742 57.6175Z" fill="#A77D32"/>
<path d="M42.3877 280.436C41.7134 280.665 41.0391 280.901 40.3648 281.13C40.2759 280.857 40.1796 280.591 40.0907 280.318C40.765 280.082 41.4392 279.853 42.1135 279.617C42.2098 279.89 42.2988 280.155 42.3951 280.429L42.3877 280.436Z" fill="#A77D32"/>
<path d="M138.112 53.4025C138.483 53.8528 138.861 54.2957 139.231 54.746C139.068 54.9231 138.905 55.1077 138.75 55.2848C138.253 54.901 137.757 54.5171 137.26 54.1333C137.549 53.8897 137.831 53.6461 138.12 53.4025H138.112Z" fill="#A77D32"/>
<path d="M390.32 303.844C391.009 304.08 391.699 304.316 392.388 304.552C392.291 304.825 392.202 305.098 392.106 305.372C391.417 305.135 390.728 304.899 390.046 304.663C390.143 304.39 390.231 304.117 390.328 303.844H390.32Z" fill="#A77D32"/>
<path d="M400.309 309.21C399.753 308.871 399.19 308.531 398.634 308.191C398.752 307.94 398.871 307.689 398.99 307.438C399.59 307.653 400.183 307.874 400.783 308.088C400.627 308.457 400.464 308.834 400.309 309.203V309.21Z" fill="#A77D32"/>
<path d="M134.437 49.2465C133.933 48.5748 133.422 47.9104 132.918 47.2387C133.133 47.0763 133.355 46.9139 133.57 46.7515C134.082 47.4233 134.585 48.095 135.097 48.7667C134.874 48.9291 134.659 49.0841 134.437 49.2465Z" fill="#A77D32"/>
<path d="M394.329 332.463C393.751 332.16 393.18 331.85 392.603 331.547C392.729 331.296 392.862 331.053 392.988 330.802C393.566 331.097 394.151 331.392 394.729 331.688C394.596 331.946 394.462 332.204 394.322 332.463H394.329Z" fill="#A77D32"/>
<path d="M381.199 323.051C381.873 323.28 382.548 323.509 383.229 323.745C383.14 324.018 383.044 324.291 382.955 324.557L380.925 323.87C381.014 323.597 381.11 323.324 381.199 323.051Z" fill="#A77D32"/>
<path d="M234.533 58.3187V56.7907L235.208 56.6726C235.349 57.1893 235.489 57.6987 235.63 58.2154C235.267 58.2523 234.904 58.2892 234.533 58.3187Z" fill="#A77D32"/>
<path d="M331.155 334.183C330.673 333.489 330.199 332.795 329.717 332.108C329.925 331.946 330.14 331.791 330.347 331.629C330.925 332.263 331.503 332.891 332.088 333.526C331.777 333.747 331.466 333.969 331.155 334.183Z" fill="#A77D32"/>
<path d="M163.238 333.71C162.942 334.279 162.638 334.847 162.342 335.423L161.593 335.032C161.897 334.463 162.194 333.887 162.497 333.319C162.749 333.452 162.994 333.577 163.246 333.71H163.238Z" fill="#A77D32"/>
<path d="M218.062 355.191V353.109C218.299 353.08 218.536 353.05 218.781 353.013C218.914 353.7 219.055 354.386 219.188 355.073C218.81 355.11 218.44 355.147 218.062 355.191Z" fill="#A77D32"/>
<path d="M102.835 342.517C102.213 343.092 101.59 343.661 100.968 344.237C100.775 344.052 100.583 343.875 100.39 343.69C100.931 343.026 101.479 342.362 102.02 341.697C102.294 341.97 102.561 342.244 102.835 342.517Z" fill="#A77D32"/>
<path d="M86.6823 121.352C86.2155 120.997 85.7487 120.643 85.2819 120.289C85.393 120.082 85.5041 119.875 85.6153 119.669C86.2081 119.927 86.8082 120.178 87.401 120.436L86.6823 121.359V121.352Z" fill="#A77D32"/>
<path d="M220.337 37.1183V35.5755C220.559 35.5312 220.781 35.4943 221.004 35.45L221.441 37.0076C221.07 37.0445 220.7 37.0814 220.337 37.1109V37.1183Z" fill="#A77D32"/>
<path d="M71.1814 214.805H74.0267C74.0637 214.997 74.1008 215.189 74.1378 215.381C73.1523 215.476 72.1595 215.565 71.174 215.661C71.174 215.381 71.174 215.093 71.1814 214.812V214.805Z" fill="#A77D32"/>
<path d="M396.13 150.938L398.175 150.273C398.263 150.546 398.352 150.82 398.441 151.093C397.76 151.314 397.078 151.536 396.396 151.75C396.307 151.477 396.218 151.211 396.13 150.938Z" fill="#A77D32"/>
<path d="M282.125 41.6138V43.1418C281.896 43.1418 281.666 43.1418 281.436 43.1418V41.6138C281.666 41.6138 281.896 41.6138 282.125 41.6138Z" fill="#A77D32"/>
<path d="M277.235 346.163C277.939 347.448 278.265 348.053 278.598 348.651C278.413 348.821 278.228 348.998 278.035 349.168C277.65 348.865 277.131 348.636 276.939 348.245C276.783 347.927 277.035 347.418 277.235 346.163Z" fill="#A77D32"/>
<path d="M358.793 265.923H360.801C360.801 266.167 360.801 266.418 360.801 266.662H358.793C358.793 266.418 358.793 266.167 358.793 265.923Z" fill="#A77D32"/>
<path d="M190.417 94.3048C190.654 94.9913 190.891 95.6778 191.121 96.3643C190.846 96.4603 190.572 96.5489 190.298 96.6449C190.061 95.9583 189.824 95.2718 189.587 94.5853C189.861 94.4894 190.143 94.3934 190.417 94.3048Z" fill="#A77D32"/>
<path d="M267.351 394.624C267.536 395.326 267.721 396.027 267.914 396.728C267.632 396.795 267.358 396.861 267.076 396.928C266.913 396.226 266.743 395.518 266.58 394.816C266.839 394.75 267.099 394.684 267.358 394.624H267.351Z" fill="#A77D32"/>
<path d="M333.852 394.839C334.282 395.355 334.704 395.865 335.134 396.381C334.956 396.573 334.778 396.765 334.593 396.965C334.059 396.544 333.533 396.116 333 395.695C333.281 395.414 333.57 395.126 333.852 394.846V394.839Z" fill="#A77D32"/>
<path d="M245.841 401.593V399.592C246.092 399.592 246.344 399.592 246.596 399.592V401.593C246.344 401.593 246.092 401.593 245.841 401.593Z" fill="#A77D32"/>
<path d="M226.153 400.655V402.589C225.916 402.626 225.679 402.656 225.442 402.693C225.301 402.043 225.16 401.386 225.02 400.737C225.397 400.714 225.775 400.685 226.153 400.663V400.655Z" fill="#A77D32"/>
<path d="M247.626 406.435V407.941C247.404 407.978 247.182 408.015 246.959 408.052C246.826 407.543 246.693 407.026 246.559 406.517C246.915 406.487 247.271 406.465 247.626 406.435Z" fill="#A77D32"/>
<path d="M159.459 408.982V407.41C159.697 407.373 159.926 407.336 160.163 407.299C160.289 407.823 160.423 408.355 160.549 408.879C160.186 408.908 159.822 408.945 159.459 408.975V408.982Z" fill="#A77D32"/>
<path d="M375.886 91.4186C376.264 91.2562 376.642 91.1012 377.02 90.9388C377.124 91.1971 377.228 91.4555 377.331 91.7138C376.953 91.8615 376.568 92.0165 376.19 92.1641C376.094 91.9131 375.99 91.6695 375.894 91.4186H375.886Z" fill="#A77D32"/>
<path d="M80.1544 115.86C80.5027 116.059 80.8509 116.266 81.1992 116.465C81.1399 116.649 81.088 116.827 81.0287 117.011C80.5694 116.9 80.1025 116.797 79.6432 116.686C79.8136 116.413 79.9766 116.133 80.147 115.86H80.1544Z" fill="#A77D32"/>
<path d="M381.184 116.553C380.843 116.79 380.503 117.019 380.191 117.233C379.969 117.055 379.739 116.886 379.747 116.878C380.014 116.502 380.295 116.14 380.577 115.778C380.777 116.037 380.984 116.295 381.184 116.553Z" fill="#A77D32"/>
<path d="M140.476 128.386C139.965 128.032 139.446 127.678 138.935 127.323L139.372 126.696C139.891 127.05 140.402 127.397 140.921 127.752C140.772 127.966 140.624 128.18 140.483 128.394L140.476 128.386Z" fill="#A77D32"/>
<path d="M375.479 145.741C375.916 145.549 376.361 145.357 376.798 145.165C376.916 145.35 377.035 145.534 377.154 145.719C376.79 146.021 376.427 146.332 376.057 146.634C375.864 146.339 375.672 146.036 375.472 145.741H375.479Z" fill="#A77D32"/>
<path d="M346.848 151.499L348.389 150.369C348.552 150.546 348.715 150.724 348.871 150.901C348.441 151.381 348.004 151.86 347.574 152.348C347.337 152.067 347.093 151.779 346.856 151.499H346.848Z" fill="#A77D32"/>
<path d="M73.9007 184.879C73.4561 184.724 73.0041 184.569 72.5596 184.407C72.6337 184.178 72.7152 183.942 72.7893 183.713C73.2413 183.86 73.6932 184.008 74.1452 184.156C74.0637 184.399 73.9822 184.635 73.9007 184.879Z" fill="#A77D32"/>
<path d="M35.3115 191.973C34.8743 191.796 34.4372 191.619 34 191.441C34.0519 191.235 34.0963 191.028 34.1482 190.829C34.6076 190.873 35.067 190.925 35.5338 190.969C35.4597 191.309 35.3856 191.641 35.3189 191.98L35.3115 191.973Z" fill="#A77D32"/>
<path d="M46.8483 215.447L48.1598 214.893C48.2561 215.115 48.3598 215.336 48.4561 215.558C48.0264 215.757 47.5966 215.956 47.1669 216.148C47.0631 215.912 46.9594 215.676 46.8483 215.44V215.447Z" fill="#A77D32"/>
<path d="M55.6805 214.716C56.3177 214.834 56.9475 214.96 57.5848 215.078C57.5551 215.299 57.5255 215.528 57.5033 215.75H55.599C55.6286 215.403 55.6583 215.063 55.6879 214.716H55.6805Z" fill="#A77D32"/>
<path d="M408.622 270.758C408.17 270.596 407.726 270.441 407.274 270.279C407.348 270.05 407.429 269.821 407.503 269.592C407.955 269.74 408.407 269.887 408.859 270.035C408.778 270.271 408.696 270.515 408.615 270.751L408.622 270.758Z" fill="#A77D32"/>
<path d="M95.7887 348.267C96.174 347.758 96.5519 347.248 96.9372 346.746C97.1446 346.894 97.3595 347.049 97.567 347.197C97.1891 347.713 96.8112 348.223 96.4333 348.739C96.2184 348.584 96.0036 348.422 95.7887 348.267Z" fill="#A77D32"/>
<path d="M418.573 250.761C418.121 250.643 417.662 250.532 417.21 250.414C417.269 250.178 417.328 249.949 417.388 249.713C417.84 249.824 418.299 249.942 418.751 250.053C418.692 250.289 418.632 250.525 418.573 250.761Z" fill="#A77D32"/>
<path d="M55.3619 253.456C55.9917 253.352 56.6215 253.249 57.2513 253.146C57.2958 253.397 57.3402 253.648 57.3847 253.891C56.7623 254.009 56.1325 254.127 55.5101 254.245C55.4656 253.98 55.4138 253.714 55.3693 253.448L55.3619 253.456Z" fill="#A77D32"/>
<path d="M394.033 258.682C394.477 258.815 394.929 258.948 395.374 259.088C395.307 259.317 395.248 259.546 395.181 259.774L393.818 259.42C393.884 259.177 393.958 258.933 394.025 258.682H394.033Z" fill="#A77D32"/>
<path d="M61.3118 273.386C61.749 273.172 62.1787 272.958 62.6159 272.744C62.727 272.966 62.8308 273.187 62.9419 273.409C62.5047 273.623 62.075 273.837 61.6378 274.043C61.5267 273.822 61.4229 273.608 61.3118 273.386Z" fill="#A77D32"/>
<path d="M220.292 30.0835C220.226 29.6775 220.166 29.2715 220.1 28.8655C220.27 28.7917 220.44 28.7252 220.618 28.6514C220.841 29.0796 221.055 29.5077 221.278 29.9285C220.952 29.9801 220.626 30.0244 220.3 30.0761L220.292 30.0835Z" fill="#A77D32"/>
<path d="M307.451 35.797C307.659 35.4279 307.866 35.0588 308.081 34.6897C308.266 34.7414 308.444 34.7931 308.63 34.8373C308.533 35.3245 308.437 35.8044 308.341 36.2916C308.044 36.1292 307.755 35.9594 307.459 35.797H307.451Z" fill="#A77D32"/>
<path d="M92.3654 352.238C92.032 352.46 91.6986 352.689 91.4022 352.888C91.1873 352.718 90.965 352.548 90.965 352.541C91.2244 352.172 91.4985 351.825 91.7727 351.471C91.9653 351.729 92.1654 351.98 92.358 352.238H92.3654Z" fill="#A77D32"/>
<path d="M121.53 292.424C121.1 292.631 120.663 292.845 120.233 293.051C120.114 292.874 119.988 292.69 119.87 292.513C120.226 292.203 120.581 291.885 120.937 291.568L121.537 292.417L121.53 292.424Z" fill="#A77D32"/>
<path d="M64.0459 296.809C63.6014 296.971 63.1568 297.141 62.7048 297.303C62.6011 297.119 62.4973 296.927 62.3862 296.742C62.7641 296.462 63.142 296.174 63.5199 295.893C63.6977 296.196 63.8681 296.506 64.0459 296.809Z" fill="#A77D32"/>
<path d="M198.501 40.0563C198.323 39.6133 198.152 39.1778 197.975 38.7349C198.167 38.6242 198.352 38.5208 198.545 38.4101C198.819 38.7792 199.101 39.1483 199.375 39.5174C199.086 39.6945 198.79 39.8717 198.501 40.0563Z" fill="#A77D32"/>
<path d="M306.488 41.7024C306.347 42.1527 306.207 42.603 306.073 43.0532C305.843 42.9868 305.614 42.9278 305.377 42.8613C305.495 42.4037 305.614 41.946 305.732 41.4883C305.984 41.5621 306.236 41.6359 306.481 41.7024H306.488Z" fill="#A77D32"/>
<path d="M248.212 423C248.041 422.557 247.871 422.114 247.7 421.664C247.937 421.575 248.167 421.487 248.404 421.398C248.567 421.841 248.738 422.291 248.901 422.734C248.671 422.823 248.441 422.904 248.212 422.993V423Z" fill="#A77D32"/>
<path d="M200.546 48.907C200.427 48.2795 200.316 47.6447 200.197 47.0173C200.457 46.9508 200.716 46.8844 200.983 46.8106C201.175 47.3937 201.368 47.9695 201.561 48.5527C201.22 48.6708 200.879 48.7889 200.538 48.907H200.546Z" fill="#A77D32"/>
<path d="M303.539 49.0103C303.332 49.3647 303.132 49.719 302.924 50.0733C302.746 50.0216 302.568 49.97 302.391 49.9183C302.487 49.4532 302.583 48.9882 302.68 48.5231C302.969 48.6855 303.258 48.8479 303.539 49.0029V49.0103Z" fill="#A77D32"/>
<path d="M279.325 51.8818C279.391 51.3208 279.458 50.7598 279.525 50.1914L280.184 50.1619C280.258 50.7672 280.325 51.3799 280.399 51.9852C280.043 51.9483 279.688 51.9114 279.325 51.8745V51.8818Z" fill="#A77D32"/>
<path d="M141.499 61.6184C141.276 61.1755 141.047 60.74 140.824 60.297C141.047 60.1863 141.269 60.0682 141.491 59.9575C141.721 60.393 141.951 60.8285 142.18 61.2641C141.951 61.3822 141.721 61.5003 141.491 61.6184H141.499Z" fill="#A77D32"/>
<path d="M276.598 377.528C276.42 377.1 276.25 376.665 276.072 376.237C276.257 376.126 276.45 376.022 276.635 375.912C276.916 376.273 277.198 376.635 277.48 376.997C277.191 377.174 276.894 377.351 276.605 377.528H276.598Z" fill="#A77D32"/>
<path d="M320.707 62.9545C320.537 63.4121 320.374 63.8624 320.203 64.3201C319.974 64.2389 319.744 64.1651 319.514 64.0839C319.67 63.6262 319.818 63.1612 319.974 62.7035C320.218 62.7847 320.455 62.8733 320.7 62.9545H320.707Z" fill="#A77D32"/>
<path d="M326.368 383.618C326.161 383.198 325.953 382.777 325.746 382.356C325.923 382.238 326.101 382.112 326.279 381.994C326.583 382.341 326.887 382.681 327.198 383.028C326.924 383.227 326.642 383.426 326.368 383.626V383.618Z" fill="#A77D32"/>
<path d="M191.121 67.6345C190.95 67.199 190.787 66.7561 190.617 66.3206C190.802 66.2172 190.987 66.1139 191.18 66.0032C191.461 66.3722 191.75 66.7413 192.032 67.1104C191.728 67.2876 191.424 67.4574 191.121 67.6345Z" fill="#A77D32"/>
<path d="M233.674 385.589C233.555 385.98 233.474 386.386 233.296 386.748C233.266 386.8 232.777 386.615 232.496 386.541C232.622 386.15 232.755 385.752 232.881 385.36C233.148 385.434 233.407 385.515 233.674 385.589Z" fill="#A77D32"/>
<path d="M304.954 386.313C305.125 386.756 305.295 387.191 305.466 387.634L304.895 387.959C304.614 387.59 304.332 387.221 304.058 386.852C304.354 386.674 304.658 386.497 304.954 386.32V386.313Z" fill="#A77D32"/>
<path d="M166.528 388.63C166.706 388.18 166.884 387.73 167.069 387.287C167.277 387.331 167.484 387.383 167.691 387.427C167.647 387.9 167.603 388.372 167.558 388.852L166.528 388.638V388.63Z" fill="#A77D32"/>
<path d="M330.058 389.981C329.895 389.538 329.725 389.096 329.562 388.645C329.747 388.542 329.94 388.439 330.125 388.335C330.406 388.712 330.688 389.088 330.969 389.465C330.666 389.634 330.362 389.812 330.058 389.981Z" fill="#A77D32"/>
<path d="M188.764 392.373C188.638 392.75 188.549 393.141 188.364 393.488C188.335 393.539 187.868 393.362 187.608 393.288C187.734 392.905 187.86 392.528 187.986 392.144L188.764 392.38V392.373Z" fill="#A77D32"/>
<path d="M164.505 394.765L164.972 393.399C165.209 393.473 165.439 393.554 165.676 393.628C165.528 394.086 165.387 394.543 165.239 395.008L164.505 394.772V394.765Z" fill="#A77D32"/>
<path d="M328.109 316.245C328.487 316.37 328.895 316.459 329.228 316.666C329.295 316.71 329.11 317.175 329.036 317.441C328.643 317.301 328.258 317.168 327.865 317.027C327.946 316.769 328.02 316.503 328.102 316.245H328.109Z" fill="#A77D32"/>
<path d="M128.524 80.4714C128.302 80.0359 128.087 79.6004 127.865 79.1648C128.05 79.0393 128.235 78.9139 128.413 78.781C128.739 79.1353 129.058 79.497 129.384 79.8513L128.517 80.4714H128.524Z" fill="#A77D32"/>
<path d="M356.147 80.1319C356.021 80.5083 355.932 80.8996 355.74 81.2391C355.703 81.2982 355.236 81.1136 354.969 81.0398L355.354 79.8883C355.614 79.9695 355.881 80.0433 356.14 80.1245L356.147 80.1319Z" fill="#A77D32"/>
<path d="M161.408 401.556C161.616 401.194 161.823 400.833 162.031 400.471C162.208 400.523 162.386 400.574 162.564 400.626C162.468 401.098 162.364 401.571 162.268 402.043C161.979 401.881 161.697 401.718 161.408 401.556Z" fill="#A77D32"/>
<path d="M105.31 323.73C104.888 323.937 104.465 324.136 104.036 324.343C103.917 324.166 103.791 323.988 103.672 323.804C104.021 323.494 104.369 323.191 104.71 322.881C104.91 323.162 105.11 323.442 105.31 323.723V323.73Z" fill="#A77D32"/>
<path d="M186.853 401.431C186.675 401.873 186.497 402.309 186.319 402.752C186.104 402.7 185.897 402.656 185.682 402.604C185.726 402.139 185.771 401.674 185.815 401.209C186.164 401.283 186.504 401.357 186.853 401.431Z" fill="#A77D32"/>
<path d="M269.24 405.114L268.692 403.837C268.87 403.726 269.055 403.615 269.233 403.497C269.529 403.852 269.818 404.206 270.114 404.56L269.247 405.114H269.24Z" fill="#A77D32"/>
<path d="M383.37 85.4172C382.874 85.8084 382.377 86.1997 381.888 86.5909C381.725 86.4137 381.555 86.2439 381.392 86.0668C381.807 85.5796 382.214 85.085 382.629 84.5978C382.881 84.8709 383.126 85.1441 383.378 85.4172H383.37Z" fill="#A77D32"/>
<path d="M328.598 92.4077C328.702 91.95 328.806 91.4924 328.91 91.0347L329.628 91.1971C329.525 91.6548 329.421 92.1124 329.31 92.5701C329.073 92.5184 328.828 92.4594 328.591 92.4077H328.598Z" fill="#A77D32"/>
<path d="M247.915 413.824C247.782 414.275 247.648 414.732 247.515 415.183C247.271 415.109 247.033 415.035 246.789 414.961L247.211 413.61C247.448 413.684 247.686 413.751 247.923 413.824H247.915Z" fill="#A77D32"/>
<path d="M301.59 55.2405C301.338 55.5801 301.087 55.927 300.835 56.2666C300.679 56.1485 300.523 56.0378 300.368 55.9197C300.62 55.5801 300.872 55.2405 301.131 54.8936C301.287 55.0043 301.442 55.1224 301.59 55.2332V55.2405Z" fill="#A77D32"/>
<path d="M105.969 119.359C105.629 119.108 105.288 118.857 104.954 118.606C105.073 118.451 105.184 118.296 105.303 118.141C105.643 118.392 105.977 118.65 106.318 118.901C106.199 119.056 106.088 119.204 105.969 119.359Z" fill="#A77D32"/>
<path d="M204.902 380.525V379.285H205.421V380.525C205.251 380.525 205.08 380.525 204.902 380.525Z" fill="#A77D32"/>
<path d="M323.352 378.584L322.545 377.484L323.078 377.093L323.886 378.193L323.345 378.584H323.352Z" fill="#A77D32"/>
<path d="M59.8151 173.43C60.1929 173.578 60.5634 173.718 60.9413 173.865C60.9043 174.035 60.8746 174.205 60.8376 174.375C60.4226 174.308 60.0003 174.242 59.5854 174.168C59.6595 173.917 59.741 173.674 59.8151 173.423V173.43Z" fill="#A77D32"/>
<path d="M369.699 341.638C369.396 341.306 369.084 340.966 368.781 340.634L370.085 339.335C370.389 339.675 370.692 340.007 370.996 340.346C370.566 340.782 370.129 341.21 369.699 341.646V341.638Z" fill="#A77D32"/>
<path d="M92.0172 297.148C92.1357 297.237 92.2469 297.318 92.3654 297.407C92.2024 297.599 92.0468 297.805 91.8542 297.968C91.8319 297.99 91.6319 297.813 91.5133 297.731C91.6838 297.54 91.8468 297.348 92.0172 297.148Z" fill="#A77D32"/>
<path d="M43.4695 192.32C43.1064 192.453 42.7507 192.593 42.3877 192.726C42.3136 192.534 42.2469 192.342 42.1728 192.15C42.5359 192.017 42.8915 191.884 43.2546 191.759C43.3287 191.943 43.3954 192.135 43.4695 192.32Z" fill="#A77D32"/>
<path d="M340.172 343.661L339.253 342.812C339.342 342.672 339.431 342.524 339.513 342.384C339.928 342.598 340.335 342.812 340.75 343.026C340.557 343.24 340.365 343.447 340.165 343.661H340.172Z" fill="#A77D32"/>
<path d="M55.021 275.911C55.3989 275.771 55.7768 275.623 56.1621 275.483C56.251 275.63 56.34 275.771 56.4289 275.918L55.3619 276.642C55.2507 276.398 55.1396 276.155 55.021 275.918V275.911Z" fill="#A77D32"/>
<path d="M345.692 370.892C345.715 371.136 345.752 371.372 345.744 371.616C345.744 371.638 345.485 371.652 345.352 371.667C345.329 371.424 345.292 371.18 345.3 370.944C345.3 370.922 345.559 370.907 345.7 370.892H345.692Z" fill="#A77D32"/>
<path d="M122.604 71.5838C122.908 71.9086 123.219 72.226 123.523 72.5508L122.241 73.8278L121.322 72.8608C121.752 72.4327 122.174 72.0045 122.604 71.5838Z" fill="#A77D32"/>
<path d="M262.757 64.2315V63.0504C262.927 63.0504 263.09 63.0504 263.261 63.0504V64.2315C263.09 64.2315 262.927 64.2315 262.757 64.2315Z" fill="#A77D32"/>
<path d="M364.483 120.03C364.194 120.333 363.905 120.636 363.616 120.946L363.179 120.68C363.394 120.266 363.616 119.86 363.831 119.447C364.046 119.639 364.261 119.838 364.476 120.03H364.483Z" fill="#A77D32"/>
<path d="M405.584 146.922C405.243 147.158 404.902 147.402 404.562 147.638C404.436 147.52 404.317 147.402 404.191 147.291C404.488 146.944 404.784 146.597 405.073 146.25C405.243 146.479 405.414 146.701 405.584 146.929V146.922Z" fill="#A77D32"/>
<path d="M161.334 370.412V369.276C161.608 369.32 161.875 369.364 162.149 369.416C162.031 369.77 161.905 370.132 161.786 370.486C161.638 370.464 161.482 370.434 161.334 370.412Z" fill="#A77D32"/>
<path d="M382.348 284.717C382.659 285.005 382.977 285.286 383.289 285.574C383.2 285.714 383.118 285.862 383.029 286.002C382.607 285.788 382.185 285.566 381.762 285.352C381.955 285.138 382.155 284.931 382.348 284.717Z" fill="#A77D32"/>
<path d="M140.009 351.796C139.542 352.165 139.239 352.408 138.927 352.652C138.92 352.305 138.905 351.958 138.898 351.611C139.172 351.655 139.446 351.7 140.009 351.796Z" fill="#A77D32"/>
<path d="M395.707 186.319C395.5 186.474 395.3 186.629 395.092 186.776C395.011 186.651 394.848 186.444 394.87 186.422C395.048 186.245 395.263 186.097 395.47 185.942C395.552 186.068 395.626 186.193 395.707 186.319Z" fill="#A77D32"/>
<path d="M117.714 356.084C117.943 355.693 118.166 355.302 118.395 354.911C118.588 355.021 118.781 355.132 118.966 355.243C118.736 355.634 118.507 356.025 118.284 356.416C118.092 356.306 117.906 356.195 117.714 356.084Z" fill="#A77D32"/>
<path d="M86.045 160.564C85.4523 159.338 85.2522 158.91 85.0448 158.489C85.4078 158.128 85.7709 157.766 86.1266 157.404C86.1117 158.039 86.0895 158.681 86.0376 160.564H86.045Z" fill="#A77D32"/>
<path d="M413.461 167.997C413.068 168.145 412.683 168.3 412.29 168.447C412.201 168.3 412.105 168.152 412.016 168.004L413.098 167.259C413.216 167.502 413.335 167.753 413.461 167.997Z" fill="#A77D32"/>
<path d="M111.638 363.031C111.964 362.728 112.297 362.433 112.623 362.13L113.913 363.407C113.579 363.702 113.246 364.005 112.92 364.3C112.497 363.879 112.068 363.451 111.645 363.031H111.638Z" fill="#A77D32"/>
<path d="M100.049 236.109C100.501 235.968 100.953 235.835 101.405 235.695C101.464 235.909 101.524 236.116 101.583 236.33C101.124 236.448 100.664 236.566 100.205 236.684C100.153 236.492 100.101 236.3 100.049 236.109Z" fill="#A77D32"/>
<path d="M420.003 166.299C419.759 166.321 419.507 166.358 419.262 166.343C419.233 166.343 419.218 166.078 419.196 165.937C419.448 165.915 419.692 165.878 419.944 165.893C419.966 165.893 419.988 166.159 420.003 166.299Z" fill="#A77D32"/>
<path d="M75.1307 112.767C74.8788 112.789 74.6194 112.826 74.3749 112.804C74.3379 112.804 74.2638 112.508 74.3082 112.398C74.3527 112.287 74.6268 112.147 74.6491 112.176C74.8343 112.353 74.9751 112.567 75.1307 112.774V112.767Z" fill="#A77D32"/>
<path d="M306.636 108.692C306.429 109.068 306.221 109.437 306.014 109.814C305.843 109.725 305.673 109.629 305.503 109.541C305.703 109.164 305.903 108.788 306.103 108.411C306.281 108.507 306.458 108.603 306.636 108.692Z" fill="#A77D32"/>
<path d="M67.8248 107.917C68.1657 108.168 68.5065 108.419 68.84 108.662C68.7288 108.817 68.6103 108.972 68.4991 109.12C68.1583 108.869 67.8248 108.618 67.484 108.367C67.5951 108.212 67.7137 108.064 67.8248 107.909V107.917Z" fill="#A77D32"/>
<path d="M395.7 214.76C395.611 214.879 395.529 214.997 395.44 215.107C395.248 214.945 395.048 214.79 394.885 214.605C394.862 214.583 395.04 214.384 395.129 214.266C395.322 214.428 395.515 214.591 395.707 214.753L395.7 214.76Z" fill="#A77D32"/>
<path d="M87.2306 327.672L88.0605 326.616C88.2383 326.757 88.4161 326.897 88.594 327.037C88.3124 327.384 88.0308 327.738 87.7567 328.085C87.5862 327.945 87.4084 327.812 87.238 327.672H87.2306Z" fill="#A77D32"/>
<path d="M98.0412 102.75C98.5228 103.111 98.8414 103.362 99.1674 103.606C98.8266 103.694 98.4784 103.783 98.1375 103.872C98.1153 103.591 98.0931 103.318 98.0412 102.75Z" fill="#A77D32"/>
<path d="M128.265 101.199C127.932 100.948 127.598 100.697 127.272 100.446C127.391 100.291 127.509 100.136 127.628 99.9814C127.961 100.232 128.295 100.483 128.621 100.734C128.502 100.889 128.384 101.044 128.265 101.199Z" fill="#A77D32"/>
<path d="M249.975 88.6799C250.005 89.1302 250.027 89.5805 250.057 90.0308C249.886 90.0677 249.723 90.1046 249.553 90.1415C249.456 89.6986 249.353 89.2631 249.256 88.8202C249.493 88.7759 249.738 88.7316 249.975 88.6799Z" fill="#A77D32"/>
<path d="M72.278 228.801C72.3669 228.682 72.4484 228.572 72.5373 228.454C72.73 228.616 72.9301 228.764 73.0931 228.948C73.1153 228.97 72.9375 229.17 72.856 229.288C72.6633 229.125 72.4707 228.963 72.278 228.801Z" fill="#A77D32"/>
<path d="M350.827 87.2479C350.509 87.521 350.183 87.7941 349.864 88.0599C349.738 87.9048 349.612 87.7572 349.486 87.6022C349.812 87.3364 350.138 87.0633 350.464 86.7976C350.59 86.9452 350.709 87.0929 350.835 87.2405L350.827 87.2479Z" fill="#A77D32"/>
<path d="M339.646 363.835C339.668 364.086 339.705 364.337 339.698 364.581C339.698 364.603 339.431 364.61 339.29 364.632C339.268 364.381 339.231 364.13 339.239 363.879C339.239 363.865 339.505 363.85 339.646 363.835Z" fill="#A77D32"/>
<path d="M362.868 325.31C362.72 325.317 362.579 325.324 362.431 325.332C362.475 325.103 362.52 324.874 362.571 324.645C362.705 324.719 362.897 324.771 362.957 324.882C363.009 324.985 362.905 325.162 362.875 325.302L362.868 325.31Z" fill="#A77D32"/>
<path d="M69.1882 135.842C68.9289 135.812 68.6769 135.776 68.4176 135.739C68.4695 135.598 68.5213 135.458 68.5732 135.318C68.7807 135.495 68.9807 135.665 69.1882 135.842Z" fill="#A77D32"/>
<path d="M147.982 379.603C148.204 380.082 148.093 379.846 147.982 379.603C148.397 379.942 148.189 379.772 147.982 379.603Z" fill="#A77D32"/>
<path d="M304.643 370.043C304.806 370.257 304.969 370.471 305.132 370.678C304.984 370.722 304.843 370.759 304.695 370.804C304.68 370.553 304.658 370.294 304.643 370.036V370.043Z" fill="#A77D32"/>
<path d="M411.719 190.142C411.653 190.275 411.579 190.408 411.512 190.541C411.341 190.393 411.178 190.246 411.008 190.098C411.141 190.024 411.275 189.899 411.401 189.899C411.504 189.899 411.616 190.054 411.719 190.142Z" fill="#A77D32"/>
<path d="M48.8859 277.424C48.8192 277.557 48.7525 277.69 48.6858 277.823C48.5154 277.668 48.345 277.52 48.182 277.365C48.3154 277.291 48.4487 277.166 48.5821 277.166C48.6858 277.166 48.7896 277.328 48.8859 277.417V277.424Z" fill="#A77D32"/>
<path d="M72.9004 257.892C73.382 257.678 73.1375 257.781 72.9004 257.892C73.2116 257.523 73.056 257.708 72.9004 257.892Z" fill="#A77D32"/>
<path d="M242.491 41.8722C242.654 42.1896 242.766 42.411 242.877 42.6325C242.751 42.6842 242.617 42.7432 242.491 42.7949V41.8722Z" fill="#A77D32"/>
<path d="M163.357 72.7722C163.416 72.9051 163.475 73.0454 163.542 73.1856C163.298 73.193 163.053 73.2077 162.809 73.2151C162.846 73.0675 162.831 72.8682 162.92 72.787C163.001 72.7132 163.201 72.7722 163.357 72.7722Z" fill="#A77D32"/>
<path d="M425.568 251.426C425.294 251.448 425.027 251.463 425.568 251.426C425.346 251.544 425.116 251.655 425.568 251.426Z" fill="#A77D32"/>
<path d="M306.473 74.4184L306.362 74.1157L306.651 74.1674L306.473 74.4184Z" fill="#A77D32"/>
<path d="M420.529 228.144L420.855 228.343L420.5 228.491L420.529 228.144Z" fill="#A77D32"/>
<path d="M312.127 115.727L311.838 115.904L312.016 115.616L312.127 115.727Z" fill="#A77D32"/>
<path d="M151.82 333.924L151.59 334.131L151.798 333.902L151.82 333.924Z" fill="#A77D32"/>
<path d="M313.083 301.585L312.883 301.363L313.105 301.563L313.083 301.585Z" fill="#A77D32"/>
<path d="M167.01 63.1243L166.81 62.9102L167.039 63.1021L167.01 63.1243Z" fill="#A77D32"/>
<path d="M104.102 107.607L103.902 107.348L104.162 107.54L104.102 107.607Z" fill="#A77D32"/>
<path d="M134.585 335.939L134.341 336.154L134.556 335.917L134.585 335.939Z" fill="#A77D32"/>
<path d="M135.652 335.009C135.297 335.319 134.941 335.629 134.585 335.939L134.556 335.91C134.867 335.556 135.178 335.201 135.489 334.847L135.645 335.002L135.652 335.009Z" fill="#A77D32"/>
<path d="M172.624 218.696L181.145 200.396C181.369 199.925 181.588 199.69 181.8 199.69C181.989 199.69 182.131 199.755 182.225 199.884C182.32 200.013 182.391 200.249 182.438 200.59L185.715 222.772C185.738 222.972 185.75 223.137 185.75 223.266C185.75 223.466 185.679 223.608 185.538 223.69C185.408 223.76 185.172 223.796 184.829 223.796H183.979C183.577 223.796 183.323 223.755 183.217 223.672C183.111 223.578 183.034 223.331 182.987 222.931L180.844 207.049L173.262 223.337C173.061 223.784 172.849 224.008 172.624 224.008C172.365 224.008 172.128 223.784 171.916 223.337L164.458 207.031L162.209 222.931C162.15 223.331 162.067 223.578 161.961 223.672C161.866 223.755 161.618 223.796 161.217 223.796H160.367C160.024 223.796 159.782 223.76 159.64 223.69C159.499 223.608 159.428 223.466 159.428 223.266C159.428 223.196 159.446 223.031 159.481 222.772L162.988 200.59C163.035 200.249 163.1 200.019 163.183 199.902C163.278 199.772 163.419 199.708 163.608 199.708C163.844 199.708 164.069 199.943 164.281 200.413L172.624 218.696Z" fill="#A77D32"/>
<path d="M194.2 200.643V222.843C194.2 223.266 194.146 223.531 194.04 223.637C193.934 223.743 193.668 223.796 193.243 223.796H192.446C192.021 223.796 191.755 223.743 191.649 223.637C191.543 223.531 191.489 223.266 191.489 222.843V200.643C191.489 200.231 191.543 199.972 191.649 199.866C191.755 199.761 192.021 199.708 192.446 199.708H193.243C193.668 199.708 193.934 199.761 194.04 199.866C194.146 199.972 194.2 200.231 194.2 200.643Z" fill="#A77D32"/>
<path d="M212.622 203.572L212.055 203.943C211.748 204.143 211.541 204.243 211.435 204.243C211.222 204.243 210.992 204.049 210.744 203.661C209.941 202.437 208.737 201.825 207.13 201.825C205.891 201.825 204.899 202.225 204.155 203.025C203.47 203.755 203.127 204.596 203.127 205.549C203.127 206.608 203.629 207.472 204.633 208.143C205.07 208.437 205.465 208.672 205.82 208.849C206.174 209.013 207.178 209.455 208.831 210.172C210.803 211.043 212.185 211.966 212.976 212.943C213.862 214.025 214.304 215.319 214.304 216.825C214.304 219.061 213.46 220.913 211.771 222.384C210.343 223.619 208.624 224.237 206.617 224.237C204.656 224.237 202.986 223.625 201.604 222.402C200.482 221.413 199.732 220.196 199.354 218.749C199.307 218.596 199.283 218.472 199.283 218.378C199.283 218.213 199.337 218.09 199.443 218.008C199.549 217.925 199.756 217.843 200.063 217.76L200.842 217.531C201.114 217.46 201.309 217.425 201.427 217.425C201.687 217.425 201.875 217.666 201.994 218.149C202.218 219.161 202.779 220.013 203.676 220.708C204.55 221.378 205.566 221.713 206.723 221.713C208.117 221.713 209.286 221.225 210.23 220.249C211.128 219.331 211.577 218.237 211.577 216.966C211.577 215.519 210.909 214.378 209.575 213.543C208.961 213.155 207.532 212.46 205.288 211.46C203.505 210.649 202.253 209.79 201.533 208.884C200.777 207.931 200.399 206.808 200.399 205.513C200.399 203.478 201.202 201.872 202.808 200.696C204.084 199.766 205.542 199.302 207.184 199.302C208.353 199.302 209.439 199.561 210.443 200.078C211.447 200.596 212.273 201.331 212.923 202.284C213.112 202.555 213.206 202.755 213.206 202.884C213.206 203.084 213.011 203.313 212.622 203.572Z" fill="#A77D32"/>
<path d="M232.248 216.984H221.904L219.282 223.108C219.14 223.449 219.022 223.649 218.928 223.708C218.845 223.766 218.615 223.796 218.237 223.796H217.298C216.672 223.796 216.359 223.625 216.359 223.284C216.359 223.166 216.424 222.955 216.554 222.649L226.509 200.096C226.71 199.637 226.928 199.408 227.165 199.408C227.424 199.408 227.655 199.637 227.855 200.096L237.562 222.666C237.692 222.949 237.757 223.16 237.757 223.302C237.757 223.631 237.444 223.796 236.818 223.796H235.844C235.478 223.796 235.248 223.766 235.153 223.708C235.059 223.649 234.941 223.449 234.799 223.108L232.248 216.984ZM231.186 214.478L227.147 204.825L223.002 214.478H231.186Z" fill="#A77D32"/>
<path d="M247.748 213.013L254.585 222.596C254.798 222.902 254.904 223.131 254.904 223.284C254.904 223.625 254.585 223.796 253.947 223.796H252.814C252.46 223.796 252.241 223.778 252.158 223.743C252.088 223.696 251.952 223.525 251.751 223.231L244.843 213.225H244.152V222.843C244.152 223.266 244.099 223.531 243.992 223.637C243.886 223.743 243.62 223.796 243.195 223.796H242.398C241.973 223.796 241.707 223.743 241.601 223.637C241.495 223.531 241.442 223.266 241.442 222.843V200.643C241.442 200.231 241.495 199.972 241.601 199.866C241.707 199.761 241.973 199.708 242.398 199.708H245.356C247.057 199.708 248.391 199.861 249.36 200.166C250.918 200.661 252.082 201.549 252.849 202.831C253.499 203.902 253.823 205.113 253.823 206.466C253.823 208.819 252.95 210.602 251.202 211.813C250.198 212.508 249.047 212.908 247.748 213.013ZM244.152 210.861H245.835C247.476 210.861 248.728 210.537 249.59 209.89C250.641 209.09 251.166 207.949 251.166 206.466C251.166 204.89 250.582 203.731 249.413 202.99C248.574 202.472 247.358 202.213 245.764 202.213H244.152V210.861Z" fill="#A77D32"/>
<path d="M262.043 200.643V214.461C262.043 215.719 262.102 216.678 262.22 217.337C262.338 217.996 262.55 218.584 262.857 219.102C263.294 219.831 263.973 220.443 264.894 220.937C265.851 221.455 266.867 221.713 267.941 221.713C269.429 221.713 270.758 221.255 271.927 220.337C272.683 219.737 273.19 219.037 273.45 218.237C273.722 217.425 273.858 216.166 273.858 214.461V200.643C273.858 200.231 273.911 199.972 274.017 199.866C274.123 199.761 274.389 199.708 274.814 199.708H275.611C276.036 199.708 276.302 199.761 276.408 199.866C276.515 199.972 276.568 200.231 276.568 200.643V215.202C276.568 216.508 276.444 217.602 276.196 218.484C275.96 219.355 275.558 220.16 274.991 220.902C274.165 221.972 273.096 222.808 271.785 223.408C270.569 223.96 269.287 224.237 267.941 224.237C266.016 224.237 264.263 223.69 262.68 222.596C261.488 221.761 260.631 220.772 260.112 219.631C259.592 218.478 259.332 217.002 259.332 215.202V200.643C259.332 200.231 259.386 199.972 259.492 199.866C259.598 199.761 259.864 199.708 260.289 199.708H261.086C261.511 199.708 261.777 199.761 261.883 199.866C261.989 199.972 262.043 200.231 262.043 200.643Z" fill="#A77D32"/>
<path d="M295.309 218.696L303.829 200.396C304.053 199.925 304.272 199.69 304.484 199.69C304.673 199.69 304.815 199.755 304.909 199.884C305.004 200.013 305.075 200.249 305.122 200.59L308.399 222.772C308.423 222.972 308.434 223.137 308.434 223.266C308.434 223.466 308.364 223.608 308.222 223.69C308.092 223.76 307.856 223.796 307.513 223.796H306.663C306.262 223.796 306.008 223.755 305.901 223.672C305.795 223.578 305.718 223.331 305.671 222.931L303.528 207.049L295.946 223.337C295.746 223.784 295.533 224.008 295.309 224.008C295.049 224.008 294.813 223.784 294.6 223.337L287.143 207.031L284.893 222.931C284.834 223.331 284.751 223.578 284.645 223.672C284.551 223.755 284.303 223.796 283.901 223.796H283.051C282.708 223.796 282.466 223.76 282.325 223.69C282.183 223.608 282.112 223.466 282.112 223.266C282.112 223.196 282.13 223.031 282.165 222.772L285.673 200.59C285.72 200.249 285.785 200.019 285.867 199.902C285.962 199.772 286.104 199.708 286.292 199.708C286.529 199.708 286.753 199.943 286.966 200.413L295.309 218.696Z" fill="#A77D32"/>
<path d="M209.837 241.746H206.459C206.228 241.746 206.084 241.717 206.026 241.66C205.969 241.602 205.94 241.459 205.94 241.229V240.903C205.94 240.672 205.969 240.529 206.026 240.471C206.084 240.414 206.228 240.385 206.459 240.385H210.906C211.124 240.385 211.265 240.41 211.329 240.462C211.393 240.513 211.425 240.625 211.425 240.797C211.425 242.127 211.194 243.207 210.732 244.038C210.238 244.933 209.536 245.661 208.625 246.224C207.572 246.869 206.43 247.192 205.199 247.192C204.031 247.192 202.934 246.901 201.907 246.32C200.746 245.661 199.854 244.747 199.232 243.577C198.712 242.6 198.452 241.555 198.452 240.442C198.452 239.145 198.796 237.946 199.482 236.847C200.13 235.812 200.999 235.009 202.09 234.44C203.097 233.91 204.172 233.645 205.314 233.645C206.847 233.645 208.188 234.089 209.337 234.977C209.696 235.252 210.017 235.543 210.299 235.85C210.588 236.157 210.732 236.361 210.732 236.463C210.732 236.553 210.649 236.674 210.482 236.828L210.174 237.106C210.014 237.253 209.895 237.326 209.818 237.326C209.741 237.326 209.667 237.288 209.597 237.211C209.205 236.777 208.849 236.419 208.528 236.138C208.15 235.799 207.666 235.527 207.075 235.323C206.491 235.118 205.904 235.016 205.314 235.016C204.435 235.016 203.601 235.227 202.812 235.649C201.894 236.134 201.179 236.821 200.666 237.71C200.178 238.547 199.934 239.464 199.934 240.462C199.934 242.015 200.499 243.312 201.628 244.354C202.693 245.332 203.89 245.821 205.218 245.821C206.379 245.821 207.428 245.441 208.365 244.68C208.846 244.284 209.199 243.859 209.423 243.405C209.654 242.945 209.792 242.392 209.837 241.746Z" fill="#A77D32"/>
<path d="M217.536 241.094L221.251 246.3C221.367 246.467 221.424 246.591 221.424 246.674C221.424 246.86 221.251 246.952 220.905 246.952H220.289C220.096 246.952 219.978 246.943 219.933 246.924C219.894 246.898 219.82 246.805 219.711 246.646L215.958 241.209H215.583V246.435C215.583 246.665 215.554 246.809 215.496 246.866C215.438 246.924 215.294 246.952 215.063 246.952H214.63C214.399 246.952 214.255 246.924 214.197 246.866C214.139 246.809 214.11 246.665 214.11 246.435V234.373C214.11 234.15 214.139 234.009 214.197 233.952C214.255 233.894 214.399 233.865 214.63 233.865H216.237C217.161 233.865 217.886 233.948 218.412 234.115C219.259 234.383 219.891 234.866 220.308 235.562C220.661 236.144 220.837 236.802 220.837 237.537C220.837 238.816 220.362 239.784 219.413 240.442C218.868 240.819 218.242 241.037 217.536 241.094ZM215.583 239.925H216.497C217.389 239.925 218.069 239.749 218.537 239.397C219.108 238.963 219.394 238.343 219.394 237.537C219.394 236.681 219.076 236.051 218.441 235.649C217.985 235.367 217.325 235.227 216.458 235.227H215.583V239.925Z" fill="#A77D32"/>
<path d="M229.884 233.645C231.096 233.645 232.216 233.945 233.242 234.546C234.32 235.166 235.167 235.997 235.783 237.039C236.399 238.087 236.707 239.215 236.707 240.423C236.707 241.631 236.396 242.763 235.773 243.817C235.177 244.827 234.368 245.632 233.348 246.233C232.264 246.872 231.083 247.192 229.807 247.192C228.652 247.192 227.539 246.892 226.467 246.291C225.338 245.645 224.472 244.779 223.869 243.693C223.311 242.689 223.031 241.57 223.031 240.337C223.031 238.477 223.753 236.869 225.197 235.514C225.915 234.837 226.743 234.338 227.68 234.019C228.424 233.769 229.159 233.645 229.884 233.645ZM229.836 235.016C228.822 235.016 227.888 235.287 227.035 235.831C226.259 236.329 225.649 236.972 225.206 237.758C224.745 238.582 224.514 239.503 224.514 240.519C224.514 241.356 224.712 242.155 225.11 242.916C225.572 243.804 226.249 244.517 227.141 245.054C228.001 245.565 228.912 245.821 229.874 245.821C230.836 245.821 231.747 245.562 232.607 245.044C233.454 244.539 234.105 243.872 234.561 243.041C235.004 242.235 235.225 241.363 235.225 240.423C235.225 238.896 234.679 237.595 233.589 236.521C232.562 235.518 231.311 235.016 229.836 235.016Z" fill="#A77D32"/>
<path d="M240.874 234.373V241.88C240.874 242.564 240.906 243.085 240.97 243.443C241.034 243.801 241.15 244.121 241.317 244.402C241.554 244.798 241.923 245.131 242.423 245.399C242.943 245.68 243.495 245.821 244.079 245.821C244.887 245.821 245.609 245.572 246.244 245.073C246.655 244.747 246.931 244.367 247.072 243.932C247.219 243.491 247.293 242.807 247.293 241.88V234.373C247.293 234.15 247.322 234.009 247.38 233.952C247.437 233.894 247.582 233.865 247.813 233.865H248.246C248.477 233.865 248.621 233.894 248.679 233.952C248.737 234.009 248.766 234.15 248.766 234.373V242.283C248.766 242.993 248.698 243.587 248.563 244.066C248.435 244.539 248.217 244.977 247.909 245.38C247.46 245.962 246.879 246.415 246.167 246.741C245.506 247.042 244.81 247.192 244.079 247.192C243.033 247.192 242.08 246.895 241.22 246.3C240.572 245.847 240.107 245.31 239.825 244.69C239.543 244.063 239.402 243.261 239.402 242.283V234.373C239.402 234.15 239.43 234.009 239.488 233.952C239.546 233.894 239.69 233.865 239.921 233.865H240.354C240.585 233.865 240.73 233.894 240.787 233.952C240.845 234.009 240.874 234.15 240.874 234.373Z" fill="#A77D32"/>
<path d="M253.654 241.219V246.435C253.654 246.665 253.626 246.809 253.568 246.866C253.51 246.924 253.366 246.952 253.135 246.952H252.702C252.471 246.952 252.326 246.924 252.269 246.866C252.211 246.809 252.182 246.665 252.182 246.435V234.373C252.182 234.15 252.211 234.009 252.269 233.952C252.326 233.894 252.471 233.865 252.702 233.865H254.569C255.371 233.865 256.025 233.936 256.532 234.076C257.045 234.217 257.494 234.453 257.879 234.786C258.258 235.112 258.553 235.517 258.765 236.003C258.983 236.489 259.092 237.004 259.092 237.547C259.092 238.058 258.996 238.554 258.803 239.033C258.611 239.506 258.348 239.899 258.014 240.212C257.302 240.883 256.275 241.219 254.934 241.219H253.654ZM253.654 239.886H254.848C255.772 239.886 256.471 239.672 256.946 239.244C257.414 238.816 257.648 238.244 257.648 237.528C257.648 235.994 256.68 235.227 254.742 235.227H253.654V239.886Z" fill="#A77D32"/>
</svg>
