<svg width="20" height="15" viewBox="0 0 20 15" fill="none" xmlns="http://www.w3.org/2000/svg">
<path d="M9.76301 14.3915C6.88302 14.3915 4.00302 14.3915 1.12905 14.3915C0.344148 14.3915 0 14.0484 0 13.272C0 9.34186 0 5.41172 0 1.48158C0 0.711203 0.380374 0.33805 1.15924 0.33805C6.88905 0.33805 12.6128 0.344068 18.3426 0.332031C18.9645 0.332031 19.52 0.644998 19.52 1.46353C19.5019 5.43579 19.52 9.40806 19.52 13.3743C19.52 14.0243 19.1336 14.3975 18.4694 14.3975C15.5592 14.3915 12.6611 14.3915 9.76301 14.3915ZM17.594 3.12466C17.4309 3.23299 17.3041 3.31123 17.1834 3.39549C14.9555 4.93023 12.7336 6.46497 10.5057 8.00573C9.89585 8.42703 9.61811 8.42703 9.02037 8.01777C6.92528 6.57331 4.83019 5.12885 2.7351 3.67837C2.47547 3.49781 2.21585 3.32327 1.93208 3.12466C1.93208 6.27238 1.93208 9.36593 1.93208 12.4655C7.16679 12.4655 12.3774 12.4655 17.594 12.4655C17.594 9.3539 17.594 6.27238 17.594 3.12466ZM15.4626 2.264C11.6287 2.264 7.87321 2.264 4.09359 2.264C4.12981 2.30613 4.14188 2.32418 4.15999 2.33622C5.97735 3.58809 7.78867 4.84597 9.60603 6.0858C9.67848 6.13395 9.85357 6.12191 9.9381 6.07377C10.5902 5.64043 11.2362 5.18903 11.8823 4.74366C13.0536 3.92513 14.2309 3.11262 15.4626 2.264Z" fill="#A77D32"/>
</svg>
