<svg width="45" height="35" viewBox="0 0 45 35" fill="none" xmlns="http://www.w3.org/2000/svg">
<path d="M33.6189 28.8495C39.7231 22.7453 39.7231 12.8484 33.6189 6.74424C27.5147 0.640028 17.6178 0.640022 11.5136 6.74423C5.40938 12.8484 5.40938 22.7453 11.5136 28.8495C17.6178 34.9537 27.5147 34.9537 33.6189 28.8495Z" fill="#A77D32"/>
<path fill-rule="evenodd" clip-rule="evenodd" d="M17.9693 7.83984H27.1643C30.118 7.83984 32.5476 10.2694 32.5476 13.2232V22.3702C32.5476 25.324 30.118 27.7536 27.1643 27.7536H17.9693C15.0155 27.7536 12.5859 25.324 12.5859 22.3702V13.2232C12.5859 10.2694 15.0155 7.83984 17.9693 7.83984ZM27.9262 11.3171C28.5455 11.3171 29.0697 11.8412 29.0697 12.4606C29.0697 13.08 28.5455 13.6042 27.9262 13.6042C27.2595 13.6042 26.7826 13.08 26.7826 12.4606C26.7826 11.8412 27.2588 11.3171 27.9262 11.3171ZM22.5428 12.3654H22.5908C25.5445 12.3654 28.0221 14.8429 28.0221 17.7967C28.0221 20.7977 25.5445 23.228 22.5908 23.228H22.5428C19.589 23.228 17.1594 20.7984 17.1594 17.7967C17.1594 14.8429 19.589 12.3654 22.5428 12.3654ZM22.5428 14.2236H22.5908C24.5442 14.2236 26.1639 15.8433 26.1639 17.7967C26.1639 19.7974 24.5442 21.4171 22.5908 21.4171H22.5428C20.5894 21.4171 18.9696 19.7974 18.9696 17.7967C18.9696 15.8433 20.5894 14.2236 22.5428 14.2236ZM18.0166 9.55482H27.1156C29.1642 9.55482 30.8313 11.2225 30.8313 13.2705V22.3222C30.8313 24.3709 29.1636 26.0379 27.1156 26.0379H18.0166C15.9679 26.0379 14.3009 24.3702 14.3009 22.3222V13.2705C14.3009 11.2218 15.9686 9.55482 18.0166 9.55482Z" fill="white"/>
</svg>
