<svg width="39" height="35" viewBox="0 0 39 35" fill="none" xmlns="http://www.w3.org/2000/svg">
<path d="M34.0398 28.8495C40.144 22.7453 40.144 12.8484 34.0398 6.74423C27.9356 0.640019 18.0387 0.640023 11.9345 6.74423C5.83027 12.8484 5.83027 22.7453 11.9345 28.8495C18.0387 34.9537 27.9356 34.9537 34.0398 28.8495Z" fill="#A77D32"/>
<path fill-rule="evenodd" clip-rule="evenodd" d="M14.2941 14.6593H17.8144V26.4799H14.2941V14.6593ZM16.032 8.66211C17.2054 8.66211 18.1613 9.61796 18.1613 10.7914C18.1613 11.9648 17.2054 12.9207 16.032 12.9207C14.8586 12.9207 13.9458 11.9648 13.9458 10.7914C13.9458 9.61796 14.8586 8.66211 16.032 8.66211ZM19.8999 14.6593H23.3764V16.311C24.1154 15.2245 25.3319 14.5293 26.7229 14.5293H27.6788C29.895 14.5293 31.6767 16.3548 31.6767 18.5272V26.4799H28.2002V25.3934V20.0913C28.1564 18.7441 27.2443 17.7014 25.8971 17.7014C24.5499 17.7014 23.4202 18.7441 23.3764 20.0913V26.4799H19.8999V14.6593Z" fill="white"/>
</svg>
