<svg width="20" height="29" viewBox="0 0 20 29" fill="none" xmlns="http://www.w3.org/2000/svg">
<path d="M9.77212 28.0239C9.66564 27.8933 9.58373 27.8116 9.51821 27.7218C7.06108 24.4397 4.74319 21.0596 2.74473 17.4754C1.86017 15.8915 1.05752 14.2668 0.484188 12.5441C0.222095 11.7603 0.00913177 10.9602 0.000941353 10.1356C-0.0154395 8.90276 0.181131 7.68626 0.656175 6.54324C2.10588 3.05702 4.70225 0.934261 8.44527 0.395408C13.6953 -0.363886 18.3311 3.18765 19.3467 8.06999C19.7071 9.81718 19.486 11.4827 18.8635 13.1238C18.2001 14.871 17.3564 16.5284 16.4227 18.1449C14.498 21.4842 12.3193 24.652 10.0096 27.7381C9.94411 27.828 9.8704 27.9014 9.77212 28.0239ZM9.79669 4.77155C7.01195 4.72256 4.49749 7.00044 4.4893 10.0131C4.48111 12.9197 6.85632 15.2955 9.76392 15.2955C12.6551 15.2955 15.0385 12.936 15.0467 10.0621C15.0631 7.13924 12.7125 4.77972 9.79669 4.77155Z" fill="#A77D32"/>
</svg>
