<svg width="20" height="20" viewBox="0 0 20 20" fill="none" xmlns="http://www.w3.org/2000/svg">
<path d="M0 4.99123C0.0278127 2.88658 1.32109 1.04586 3.3097 0.301452C4.02588 0.030758 4.58213 0.227011 4.9576 0.883445C5.53472 1.89178 6.11184 2.90012 6.68896 3.91522C7.07833 4.61226 7.0227 5.16718 6.4734 5.76271C6.00058 6.27026 5.51387 6.76428 5.02019 7.25153C4.86722 7.40718 4.83941 7.53576 4.9298 7.73878C6.29262 10.8112 8.57326 12.9699 11.7022 14.3234C11.9038 14.4114 12.022 14.364 12.1681 14.2219C12.6965 13.7144 13.218 13.2068 13.7673 12.7196C14.3236 12.2255 14.9076 12.1714 15.5612 12.5301C16.632 13.1188 17.6958 13.7076 18.7597 14.3031C19.5037 14.7227 19.6914 15.2641 19.3576 16.0288C18.2799 18.5124 15.4013 19.7238 12.8078 18.8305C8.23256 17.2537 4.7073 14.4046 2.14853 10.4322C1.23071 9.00427 0.479766 7.46808 0.0834348 5.80331C0.013903 5.54615 0.0208595 5.26869 0 4.99123Z" fill="#A77D32"/>
</svg>
