<svg width="17" height="24" viewBox="0 0 17 24" fill="none" xmlns="http://www.w3.org/2000/svg">
<path d="M8.32352 23.8007C8.23294 23.6898 8.16325 23.6205 8.10751 23.5442C6.0172 20.7579 4.04535 17.8884 2.34523 14.8457C1.59272 13.501 0.909898 12.1217 0.422159 10.6593C0.199193 9.99389 0.0180224 9.31463 0.0110547 8.61459C-0.00288066 7.56799 0.164344 6.53525 0.56847 5.56489C1.80175 2.6053 4.01052 0.803208 7.19475 0.345754C11.661 -0.298841 15.6048 2.7162 16.4687 6.86102C16.7753 8.34428 16.5872 9.75823 16.0577 11.1514C15.4933 12.6346 14.7756 14.0417 13.9813 15.414C12.3439 18.2489 10.4905 20.9381 8.52557 23.5581C8.46983 23.6343 8.40713 23.6967 8.32352 23.8007ZM8.34442 4.06084C5.97541 4.01925 3.83632 5.95304 3.82935 8.51062C3.82239 10.9781 5.84301 12.9951 8.31654 12.9951C10.7761 12.9951 12.8037 10.992 12.8107 8.55221C12.8246 6.07087 10.8249 4.06777 8.34442 4.06084Z" fill="#A77D32"/>
</svg>
