<svg width="45" height="35" viewBox="0 0 45 35" fill="none" xmlns="http://www.w3.org/2000/svg">
<path d="M33.8293 28.8476C39.9335 22.7434 39.9335 12.8465 33.8293 6.74228C27.7251 0.638074 17.8282 0.638073 11.724 6.74228C5.61982 12.8465 5.61982 22.7434 11.724 28.8476C17.8282 34.9518 27.7251 34.9518 33.8293 28.8476Z" fill="#A77D32"/>
<path fill-rule="evenodd" clip-rule="evenodd" d="M22.9491 15.0168C22.1789 10.9606 27.0568 8.54764 29.9314 11.4743C29.9314 11.4743 31.2146 11.1149 32.3443 10.3961C32.3443 10.3961 31.9334 11.7822 30.5473 12.6554C30.5473 12.6554 32.0878 12.4503 32.7551 12.0395C32.7551 12.0395 32.0878 13.4256 30.8552 13.9393C31.5226 23.2323 21.5108 28.8798 13.3989 24.2591C13.3989 24.2591 17.4038 24.4642 19.0979 22.5135C19.0979 22.5135 16.6335 22.7186 15.401 19.7412C15.401 19.7412 16.3249 20.1006 17.2494 19.6383C17.2494 19.6383 14.3742 19.176 14.1177 15.7363C14.1177 15.7363 15.0416 16.4551 16.0691 16.1986C16.0691 16.1986 12.8859 14.2987 14.6829 10.8591C14.6829 10.8591 18.0718 15.1719 22.9491 15.0175V15.0168Z" fill="white"/>
</svg>
